<svg width="55" height="40" viewBox="0 0 55 40" fill="none" xmlns="http://www.w3.org/2000/svg">
<path d="M29.5502 1.82206C28.9564 3.41855 28.7726 3.69335 28.7584 3.02597C28.7443 2.3455 28.4191 0.735931 28.3201 0.879875C28.2777 0.945305 28.1928 1.29863 28.1363 1.65195C27.9808 2.69882 27.8111 2.96054 27.7828 2.18847C27.7545 1.10234 27.5566 0.89296 27.4435 1.83515C27.3869 2.28007 27.2879 2.6203 27.2314 2.59413C27.1748 2.55487 27.0476 2.10995 26.9486 1.5996C26.8496 1.08925 26.7365 0.696671 26.7082 0.722843C26.6799 0.749016 26.5527 1.46874 26.4396 2.31933C26.3264 3.16991 26.2133 3.88964 26.1851 3.91581C26.1285 3.95507 25.5064 2.28007 25.1246 1.07616C25.0115 0.696671 24.9832 0.93222 24.9549 2.31933L24.9408 4.0205L24.658 3.49706C24.5166 3.20917 24.2055 2.59413 23.9793 2.12304L23.5693 1.27245L23.6258 1.86132L23.6965 2.45019L23.4844 2.05761C23.2865 1.67812 23.2865 1.71738 23.2724 2.86894C23.2582 3.53632 23.2017 4.08593 23.1451 4.08593C23.0744 4.08593 22.8764 3.77187 22.6785 3.39238C22.4947 3.02597 22.0988 2.33241 21.8019 1.86132C21.307 1.08925 21.2646 1.04999 21.3353 1.46874C21.3777 1.71738 21.4484 2.48944 21.4908 3.16991L21.5756 4.41308L20.7697 2.94745C20.3172 2.13612 19.9355 1.48183 19.9213 1.508C19.893 1.53417 19.9637 2.14921 20.091 2.89511C20.2041 3.62792 20.2889 4.2953 20.2607 4.37382C20.2324 4.43925 20.0344 4.19062 19.8223 3.81113C19.3133 2.86894 18.7053 1.99218 18.7902 2.31933C18.9881 3.06523 19.3133 4.89726 19.2568 5.0412C19.2285 5.11972 18.7336 4.53085 18.168 3.71952C17.5883 2.92128 17.1076 2.28007 17.0935 2.29316C17.0652 2.30624 17.1783 2.73808 17.3338 3.23534C17.7721 4.70097 17.7156 4.7664 16.8248 3.95507L16.0471 3.24843L16.5562 4.34765C16.8248 4.96269 17.1076 5.5123 17.1924 5.57773C17.2631 5.65624 17.3197 5.7871 17.3197 5.89179C17.3197 5.98339 16.9803 5.72167 16.5844 5.30292C16.1744 4.88417 15.5664 4.28222 15.2271 3.95507L14.6332 3.3662L14.9019 3.88964C15.7926 5.56464 16.1178 6.28437 15.9199 6.14042C15.7926 6.0619 15.425 5.7871 15.1139 5.52538C14.7887 5.27675 14.2656 4.87109 13.9404 4.63554L13.3607 4.2037L14.0676 5.44687C14.4494 6.14042 14.718 6.70312 14.6615 6.70312C14.6049 6.70312 14.0959 6.3498 13.5303 5.91796C12.9506 5.48613 12.4558 5.1328 12.4275 5.1328C12.3285 5.1328 12.7668 6.04882 13.0496 6.41523C13.2051 6.61152 13.3748 6.91249 13.4314 7.0957C13.5303 7.42284 13.5303 7.42284 13.0637 7.03027C12.7951 6.8078 12.5547 6.61152 12.5123 6.57226C12.4699 6.533 12.1871 6.33671 11.8902 6.12733L11.3387 5.73476L11.9326 6.74237C12.2578 7.29198 12.484 7.74999 12.4133 7.74999C12.3568 7.73691 11.8195 7.44902 11.2398 7.0957C10.6601 6.74237 10.1652 6.48066 10.1369 6.50683C10.0945 6.533 10.2783 6.86015 10.5187 7.21347C10.9146 7.81542 11.3812 8.73144 11.3812 8.90155C11.3812 8.94081 11.2398 8.84921 11.0701 8.70527C10.8863 8.56132 10.3914 8.23417 9.96723 7.98554C8.75124 7.2789 8.7371 7.2789 8.99161 7.56679C9.11887 7.69765 9.33096 8.0248 9.47235 8.27343C9.61374 8.52206 9.85411 8.8623 10.0096 9.03241C10.3066 9.3203 10.3066 9.33339 10.0379 9.24179C9.88239 9.18945 9.41579 8.9539 9.00575 8.70527C8.21395 8.24726 8.17153 8.41738 8.90678 9.05859C9.31682 9.41191 9.75514 10.1055 9.57133 10.1055C9.51477 10.1055 9.40165 10.0531 9.33096 9.98769C9.14715 9.81757 7.13936 8.79687 7.13936 8.87538C7.13936 8.90155 7.59182 9.46425 8.14325 10.1185C8.69469 10.7728 9.10473 11.3355 9.07645 11.3748C9.03403 11.401 8.35534 11.2309 7.57768 10.9822C6.78587 10.7205 6.1496 10.5635 6.1496 10.6027C6.1496 10.6551 6.54551 11.0607 7.02624 11.5057L7.90288 12.3301L6.92727 12.0684C6.37583 11.9244 5.8951 11.8066 5.8244 11.8066C5.76784 11.8066 6.07891 12.1338 6.51723 12.5264C7.11108 13.0498 7.25247 13.2461 7.05452 13.2461C6.6162 13.233 4.70739 12.9975 4.38219 12.9058C4.18424 12.8404 4.22665 12.9058 4.52358 13.1283C4.76395 13.2853 5.24469 13.6779 5.59817 13.9789L6.26272 14.5416L5.45678 14.6332C5.01846 14.6725 4.53772 14.7771 4.39633 14.8557C4.14182 14.9734 4.14182 14.9996 4.53772 15.1828C4.76395 15.2875 5.10329 15.4838 5.2871 15.6146C5.62645 15.8633 5.61231 15.8633 4.43874 15.8764L3.25104 15.8894L4.12768 16.1642C4.62255 16.3082 5.01846 16.4783 5.01846 16.5176C5.01846 16.5699 4.62255 16.7139 4.14182 16.8447C3.51969 17.0148 3.35001 17.1064 3.5621 17.1326C4.1701 17.2373 3.88731 17.4074 2.64305 17.7215L1.41292 18.0225L2.79858 18.0617C3.81661 18.0879 4.1701 18.1402 4.14182 18.258C4.11354 18.3496 3.54796 18.6637 2.88342 18.9646L1.69571 19.5142L2.68546 19.5273C3.76005 19.5404 3.76005 19.5273 2.40268 20.0508C1.0453 20.5611 1.05944 20.5611 2.11989 20.5611C2.67132 20.5742 3.19448 20.6266 3.29346 20.6789C3.40657 20.7574 3.02481 21.0191 2.16231 21.4771L0.84735 22.1576L1.9785 22.066L3.10964 21.9875L2.75616 22.2361C2.55821 22.3801 2.09161 22.6941 1.69571 22.9166L1.00288 23.3223L1.87952 23.2437C2.36026 23.1914 2.75616 23.1914 2.75616 23.2307C2.75616 23.283 2.38854 23.4924 1.95022 23.7017C1.49776 23.9111 1.00288 24.1728 0.84735 24.2775C0.592841 24.4607 0.649399 24.4607 1.4412 24.3168C1.93608 24.2121 2.3037 24.1728 2.27542 24.2252C2.24714 24.2644 1.86538 24.5392 1.42706 24.8271C0.592841 25.3898 0.437308 25.5861 0.946325 25.4945C2.16231 25.2721 2.14817 25.2721 1.8371 25.4683C0.988743 26.0441 0.366612 26.5283 0.423169 26.5676C0.451448 26.5937 0.705956 26.5545 0.974604 26.4629C1.25739 26.3844 1.59673 26.332 1.72399 26.3713C1.9078 26.4105 1.85124 26.4498 1.55432 26.5152C1.32809 26.5676 0.946325 26.6592 0.705956 26.7246C0.310054 26.8424 0.324194 26.8424 0.804931 26.7769C1.49776 26.6984 1.48362 26.79 0.776653 27.1172C0.465587 27.2611 0.211079 27.4051 0.211079 27.4312C0.211079 27.4574 0.508005 27.4443 0.875628 27.4051L1.52604 27.3396L0.932186 27.85C0.267636 28.3996 0.338333 28.5435 1.116 28.2426C1.59673 28.0594 1.62501 28.0594 1.49776 28.2818C1.41292 28.4127 1.08772 28.7398 0.762513 29.0016L0.1828 29.4988L0.649399 29.4072C0.918046 29.368 1.24325 29.2894 1.39878 29.2502C1.73813 29.1586 1.66743 29.3156 1.05944 29.9961C0.606981 30.5195 0.366612 31.0037 0.649399 30.8336C0.720095 30.7943 0.748374 30.7158 0.705956 30.6504C0.663538 30.598 0.734235 30.5195 0.84735 30.4672C1.07358 30.3887 1.13014 30.5195 0.946325 30.7158C0.748374 30.9383 0.479727 31.5926 0.635259 31.501C0.861489 31.3701 0.804931 31.6449 0.564563 31.8281C0.267636 32.0506 0.380751 32.1291 0.790792 31.9851C0.974604 31.9197 1.29981 31.8281 1.5119 31.7758L1.89366 31.6973L1.39878 32.4955L0.918046 33.2937L1.4412 33.2152C1.89366 33.1498 1.95022 33.1629 1.76641 33.2937C1.65329 33.3984 1.42706 33.6078 1.27153 33.7648L1.00288 34.0658L1.39878 33.9219C1.92194 33.7387 1.9785 33.8041 1.69571 34.3014C1.4412 34.7725 1.52604 34.7986 2.16231 34.4453C2.41682 34.3014 2.64305 34.1836 2.68546 34.1836C2.71374 34.1836 2.61477 34.5107 2.45923 34.9295C2.10575 35.8978 2.11989 35.9502 2.61477 35.61C2.841 35.4398 3.06723 35.3351 3.09551 35.3744C3.13792 35.4006 3.08137 35.767 2.96825 36.1726L2.78444 36.9316L3.26518 36.5914C3.78833 36.2119 3.81661 36.2642 3.61866 37.1017L3.49141 37.599L4.00042 37.2457L4.4953 36.8924L4.41046 37.5074C4.32563 38.0832 4.32563 38.1094 4.59428 37.9785C4.73567 37.9131 4.90534 37.7822 4.94776 37.7168C5.17399 37.3766 5.30124 37.6383 5.21641 38.2664L5.11743 38.9338L5.61231 38.5805L6.12133 38.2271L6.2203 38.8422C6.30514 39.431 6.31928 39.4441 6.60206 39.1955C6.84243 39.0123 6.91313 38.9992 6.96969 39.1432C7.0121 39.274 7.0828 39.2348 7.22419 39.0123C7.39387 38.7244 7.40801 38.7113 7.42214 38.973C7.42214 39.2217 7.49284 39.2348 8.75124 39.2086C9.48649 39.1955 10.1652 39.1432 10.25 39.0908C10.3631 39.0254 10.4055 39.0385 10.349 39.117C10.25 39.2609 15.4533 39.5096 15.9764 39.3787C16.132 39.3525 15.9764 39.3133 15.623 39.3002C15.0291 39.274 15.0008 39.274 15.3119 39.1039C15.5947 38.96 15.5381 38.9469 14.7463 38.9861L13.8555 39.0385L14.4211 38.7637L14.9867 38.5019L14.3504 38.5805C13.9969 38.6197 13.4738 38.7375 13.1627 38.8422C12.4416 39.0908 12.3709 38.9992 13.0072 38.6328C13.6717 38.2533 13.5445 38.1617 12.7103 38.4234C11.7488 38.7244 11.6639 38.6851 12.3002 38.201C12.5971 37.9785 12.9506 37.7037 13.0637 37.6121C13.29 37.442 13.0496 37.442 11.8053 37.6644C11.6074 37.7037 11.9326 37.4943 12.5123 37.1933C13.5445 36.683 13.5021 36.6437 12.2295 36.9447C11.9609 37.0101 11.6781 37.0625 11.6074 37.0625C11.4094 37.0625 13.1062 36.068 13.5869 35.9109C13.9262 35.7932 13.799 35.767 12.7244 35.767C11.975 35.7539 11.5226 35.7016 11.5933 35.6361C11.6781 35.5707 12.2719 35.4006 12.9223 35.2697L14.1101 35.0211L12.993 34.707C11.7205 34.3537 11.876 34.2621 13.601 34.3406L14.7746 34.393L13.6717 33.8826C13.0779 33.5947 12.5547 33.333 12.5123 33.3068C12.4416 33.2414 12.7244 33.2676 14.3504 33.4769L14.8453 33.5424L14.2797 33.2676C13.9687 33.1236 13.5303 32.8619 13.29 32.6787L12.8658 32.3646L13.8838 32.6133C14.4494 32.7572 14.9443 32.875 14.9867 32.875C15.015 32.875 14.8594 32.6002 14.6332 32.26C14.1666 31.5795 14.1101 31.2262 14.4211 30.8205C14.8453 30.2709 15.9906 30.3756 16.7824 31.043C17.0228 31.2523 17.249 31.4094 17.2773 31.3832C17.3055 31.3701 17.2348 31.0953 17.1217 30.8074C16.9945 30.5064 16.9238 30.2578 16.9521 30.2578C16.9803 30.2578 17.2348 30.585 17.5176 30.9906C17.8146 31.3963 18.0691 31.6973 18.1115 31.6711C18.1398 31.6318 18.1115 31.2916 18.0267 30.9121C17.8146 29.8521 17.857 29.8521 18.3094 30.899C18.5357 31.4225 18.7619 31.8935 18.8185 31.9459C18.8609 31.9851 18.875 31.5271 18.8185 30.9121L18.7336 29.7998L19.0871 30.8336C19.2851 31.4094 19.4689 31.8935 19.5113 31.9328C19.5537 31.9721 19.582 31.5926 19.5961 31.0953L19.6103 30.1924L19.8365 31.043L20.0627 31.8935L20.3031 30.9775L20.5435 30.0615L20.5576 30.7812C20.5859 31.7889 20.798 32.0506 20.9394 31.2262C20.9959 30.8728 21.1232 30.3756 21.2221 30.1269C21.3918 29.7082 21.3918 29.7736 21.3353 30.8467L21.2646 32.0244L21.8301 31.043C22.1412 30.5064 22.3957 30.1008 22.4099 30.1531C22.4099 30.1924 22.3109 30.598 22.1836 31.043C22.0705 31.4879 21.9998 31.8805 22.0281 31.9197C22.0705 31.9459 22.3392 31.5664 22.6219 31.043C22.9189 30.5326 23.1875 30.14 23.2158 30.1793C23.2441 30.2055 23.1734 30.5064 23.0461 30.8467C22.933 31.1869 22.8482 31.501 22.8764 31.5271C22.9189 31.5533 23.2299 31.3439 23.5834 31.0691C24.6439 30.2055 25.8174 30.2055 26.0012 31.0691C26.0719 31.4094 26.0012 31.6711 25.6902 32.2338L25.2801 32.9797L26.2699 32.6656C27.698 32.2207 27.6838 32.3777 26.2133 33.1498C25.5912 33.4769 25.5205 33.5293 25.874 33.4769C26.1144 33.4377 26.6234 33.3723 27.0051 33.333L27.7121 33.2545L27.1465 33.5816C26.8355 33.7648 26.3971 34.0004 26.1568 34.1051C25.7467 34.2883 25.775 34.3014 27.0051 34.3406C28.3625 34.3799 28.3625 34.4191 26.9344 34.7855C26.4254 34.9164 26.1426 35.0473 26.2982 35.0734C26.9486 35.165 28.3625 35.5445 28.4332 35.6492C28.4756 35.7016 28.009 35.7539 27.401 35.7539L26.2982 35.767L26.9344 36.0025C27.2879 36.1334 27.8959 36.4082 28.2777 36.5914L28.9846 36.9447L28.3484 36.8662C27.9949 36.8269 27.4859 36.7615 27.2172 36.7223C26.7506 36.6568 26.7648 36.683 27.4293 36.9578C28.7019 37.4943 28.8008 37.599 27.9949 37.5205C27.2879 37.442 27.2879 37.442 27.6273 37.6775C27.8252 37.8084 28.108 38.0178 28.2635 38.1486C28.5605 38.3842 28.5463 38.3842 27.7828 38.3187L27.0051 38.2402L27.6697 38.5935C28.5039 39.0123 28.4474 39.1301 27.5566 38.8422C26.7789 38.5935 26.7506 38.5935 26.8496 38.7506C26.892 38.816 26.6234 38.8422 26.2558 38.816L25.5912 38.7637L26.1568 39.0123C26.6092 39.2086 27.0476 39.274 28.2777 39.274C29.4795 39.2871 29.7764 39.2478 29.6492 39.1301C29.3664 38.8683 29.4512 38.7375 29.8047 38.9076L30.1158 39.0646L29.8047 38.7375C29.423 38.358 29.3947 38.2402 29.7058 38.2402C29.833 38.2402 29.8754 38.1748 29.8189 38.0832C29.7482 37.9785 29.8047 37.9654 29.9885 38.0178C30.2006 38.0832 30.1865 38.057 29.9461 37.9C29.5644 37.6514 29.5219 37.3242 29.8613 37.3242C30.0592 37.3242 30.0451 37.285 29.7906 37.1148C29.3664 36.84 29.3947 36.6699 29.8754 36.6699C30.243 36.6568 30.243 36.6568 29.6916 36.3428C29.1826 36.0549 29.1685 36.0156 29.4795 36.0156C29.7482 36.0156 29.7764 35.9764 29.6492 35.8586C29.4088 35.6361 29.4371 35.4922 29.734 35.4922C29.8754 35.4791 29.7482 35.3613 29.4088 35.1912C28.8433 34.9033 28.8433 34.9033 29.2392 34.8641C29.7906 34.7986 29.7199 34.6023 29.0978 34.4976L28.5746 34.406L28.9988 34.1051L29.4088 33.791H28.9705C28.3342 33.791 28.2777 33.634 28.8008 33.3723L29.2674 33.1367L28.7443 33.2152C28.1221 33.3068 28.0797 33.2152 28.5322 32.8619L28.8433 32.6264L28.4615 32.6133C28.0232 32.6133 27.9949 32.574 28.207 32.2076C28.3342 31.9982 28.306 31.959 27.9949 31.959C27.5849 31.959 27.5707 31.9197 27.8676 31.501L28.0939 31.1869L27.6273 31.3047C27.0334 31.4617 26.9486 31.3832 27.3586 30.9906L27.6697 30.6635L27.2738 30.7027C26.6941 30.7682 26.6234 30.6896 26.8779 30.2447L27.09 29.8521L26.6658 30.0615C26.1568 30.2971 26.1426 30.2578 26.4678 29.6951C26.6799 29.3025 26.6799 29.2894 26.4678 29.4596C26.2558 29.6166 26.2275 29.6035 26.2275 29.3287V29.0408L25.9023 29.3156C25.4639 29.6951 25.3226 29.682 25.4498 29.2502C25.5346 28.9361 25.5205 28.923 25.2801 29.0932C25.1387 29.1978 24.9832 29.3287 24.9267 29.4072C24.757 29.6166 24.7994 29.4203 25.0256 28.8053L25.2519 28.2295L24.7428 28.6875C24.2338 29.1455 24.149 29.0932 24.3894 28.465L24.5308 28.0986L24.1349 28.5174C23.9086 28.7529 23.6965 28.9492 23.6541 28.9492C23.6117 28.9492 23.6258 28.7267 23.6965 28.4519C23.8945 27.6799 23.8521 27.6668 23.2441 28.2949L22.6785 28.8838L22.7492 28.1248L22.8199 27.3527L22.4099 27.9547C22.1836 28.2818 21.9715 28.5566 21.9574 28.5566C21.9291 28.5566 21.9291 28.2164 21.9574 27.8107L21.9998 27.0517L21.618 27.5752C21.2221 28.0855 21.2221 28.0986 21.1373 27.7715L21.0525 27.4443L20.9394 27.7715L20.8121 28.0986L20.7555 27.706L20.6849 27.3135L20.501 27.706C20.3172 28.0855 20.3172 28.0986 20.2889 27.7715L20.2748 27.4443L20.1193 27.7715C19.9637 28.0986 19.9637 28.0986 19.8648 27.6406L19.7658 27.1826L19.7092 27.6406L19.6385 28.0986L19.4689 27.7322C19.2992 27.3658 19.1012 27.2219 19.2426 27.5752C19.2992 27.6799 19.2851 27.8762 19.2426 27.9939C19.1578 28.1771 19.073 28.1117 18.7619 27.706L18.3801 27.2088L18.3094 27.85L18.2387 28.4912L17.9984 28.0725C17.6025 27.4051 17.4611 27.4182 17.5459 28.1248L17.6308 28.7529L17.2631 28.2557C17.051 27.9939 16.8531 27.7715 16.7965 27.7715C16.7541 27.7715 16.7541 28.0201 16.7965 28.3211L16.8814 28.8707L16.5279 28.4781L16.1885 28.0986L16.2734 28.4519C16.3724 28.8969 16.2451 28.91 15.8068 28.5435L15.4957 28.2557L15.623 28.6744C15.7785 29.1717 15.4957 29.2371 15.1422 28.7791C14.9301 28.4912 14.916 28.4912 15.0574 28.8576C15.2836 29.4465 15.2271 29.4857 14.7039 29.2109L14.1949 28.9492L14.3504 29.2109C14.4353 29.368 14.4918 29.5773 14.4635 29.682C14.4353 29.8521 14.3504 29.8391 14.0111 29.5904C13.6152 29.3025 13.6152 29.3025 13.7707 29.5773C13.8555 29.7213 13.9262 29.9437 13.9262 30.0615C13.9262 30.2316 13.8697 30.2447 13.6293 30.1269C13.29 29.9568 13.092 30.0615 13.3324 30.284C13.601 30.5326 13.5303 30.6504 13.0779 30.6504H12.6537L12.8941 31.0037L13.1486 31.3439L12.682 31.2654C12.2578 31.1869 12.0598 31.3308 12.3709 31.501C12.6254 31.6449 12.5123 31.959 12.2154 31.959C11.975 31.959 11.9467 31.9982 12.074 32.1291C12.2861 32.3777 12.1305 32.4824 11.5508 32.4824C11.0701 32.4824 11.056 32.4955 11.2963 32.731C11.5367 32.9666 11.5367 32.9928 11.2822 33.1105C11.0418 33.2414 11.0418 33.2545 11.2822 33.333C11.6498 33.4639 11.5791 33.6209 11.0701 33.791C10.6601 33.9219 10.6318 33.948 10.8439 34.0658C11.1691 34.2359 11.1691 34.4453 10.858 34.4584C10.6883 34.4584 10.6742 34.4846 10.7873 34.5369C10.9287 34.5892 10.9287 34.6416 10.8014 34.7855C10.7166 34.8902 10.5611 34.9687 10.4762 34.9687C10.3914 34.9687 9.98137 35.1781 9.57133 35.4398C9.14715 35.7016 8.77952 35.8848 8.75124 35.8455C8.70883 35.8193 9.09059 35.4006 9.58546 34.9164C10.6035 33.948 10.4762 34.0004 8.38362 35.3221C7.77563 35.7016 7.28075 35.9633 7.28075 35.8978C7.28075 35.8324 7.9453 34.9164 8.76538 33.8564C9.96723 32.2992 10.1652 31.9851 9.78342 32.2076C9.54305 32.3646 8.89264 32.718 8.35534 32.9797C7.83219 33.2414 7.0828 33.6601 6.6869 33.8957C6.12133 34.249 6.02235 34.2752 6.1496 34.0658C6.38997 33.634 9.47235 30.585 10.2076 30.0484C11.0418 29.4334 11.2822 29.224 10.8156 29.5119C9.62788 30.2316 5.49919 32.0637 5.3578 31.9197C5.30124 31.8674 6.41825 30.8728 7.02624 30.441C7.23833 30.284 7.76149 29.8652 8.18567 29.4988L8.97747 28.8445L8.44018 29.0146C8.15739 29.1062 7.4787 29.3156 6.92727 29.4726C6.38997 29.6297 5.56989 29.9045 5.13157 30.0746C4.67911 30.2447 4.28321 30.3887 4.24079 30.3887C4.12768 30.3887 5.55575 29.3549 6.6869 28.5959C7.1535 28.2949 8.32706 27.6275 9.31682 27.1303C10.3066 26.633 11.1549 26.2012 11.1832 26.1619C11.2256 26.1226 10.8863 26.175 10.4338 26.2666C9.98137 26.3713 8.36948 26.6984 6.85657 26.9994C5.34366 27.3004 3.95801 27.6014 3.77419 27.6537C3.19448 27.8631 3.57624 27.549 4.4953 27.0779C5.8951 26.3582 8.10083 25.3506 9.47235 24.801C10.1793 24.5131 10.9004 24.2121 11.0984 24.1336C11.4519 23.9766 11.4519 23.9766 11.0277 24.042C10.5894 24.1074 4.07112 24.6308 3.81661 24.6178C3.60452 24.6178 5.72542 23.9242 7.56354 23.4008C9.72686 22.7857 11.1549 22.4586 12.173 22.3146C12.781 22.2361 11.8195 22.1969 8.62399 22.1445L4.24079 22.0791L6.07891 21.6603C8.15739 21.1762 11.0135 20.6527 12.3709 20.4957L13.29 20.391L11.5933 20.234C10.6601 20.1424 9.00575 20.0377 7.91702 19.9853C6.82829 19.9461 5.65473 19.8676 5.30124 19.8283C4.70739 19.7629 4.74981 19.7367 6.1496 19.5142C8.82194 19.0824 11.8619 18.7291 12.9223 18.7029C13.4879 18.6898 13.898 18.6767 13.8414 18.6506C13.7707 18.6375 12.4416 18.3889 10.8863 18.0879C9.33096 17.8 7.57768 17.4467 6.99796 17.3158L5.93751 17.0672L6.71518 17.0541C7.56354 17.041 12.0033 17.2504 13.7424 17.3682L14.8453 17.4467L13.7142 17.0672C10.0379 15.7978 7.56354 14.908 7.60596 14.8687C7.63423 14.8426 8.12911 14.8687 8.70883 14.9473C9.82583 15.0781 11.1691 15.1043 10.8156 14.9865C9.42993 14.5154 8.39776 14.1228 8.45432 14.0836C8.51087 14.0312 8.69469 14.0705 11.2398 14.8033C12.5689 15.1697 14.4635 15.5361 14.5767 15.4314C14.6191 15.4053 14.2797 15.1828 13.8555 14.9342C13.4172 14.6855 12.2154 13.992 11.1973 13.39C9.23198 12.2385 8.42604 11.7019 8.89264 11.859C9.03403 11.8982 10.3066 12.2646 11.7205 12.6572C13.1203 13.0367 14.8029 13.534 15.4533 13.7434C16.0896 13.9527 16.6127 14.1098 16.6127 14.0836C16.6127 14.0574 15.934 13.6125 15.1139 13.0891C14.2797 12.5656 13.4738 12.0422 13.3041 11.9506C12.5123 11.4402 11.367 10.6289 11.4377 10.6289C11.4943 10.6289 11.8619 10.7859 12.2719 10.9822C12.682 11.1654 13.7 11.6103 14.5342 11.9506C15.8351 12.4871 16.033 12.5394 15.8492 12.2908C15.7219 12.1338 15.524 11.8721 15.4109 11.7281C15.2836 11.5711 15.0574 11.1 14.9019 10.6812C14.3646 9.29413 14.8312 7.81542 15.9482 7.34433C16.74 7.01718 17.2631 7.03027 18.4084 7.42284C19.4406 7.77617 20.4869 8.50898 21.1797 9.37265C21.406 9.67363 21.5756 9.81757 21.5332 9.71288C21.4342 9.41191 20.7131 6.70312 20.501 5.7871C20.4586 5.6039 20.6707 5.90488 20.9676 6.4414C22.2685 8.82304 23.5834 11.0346 23.64 10.9691C23.6683 10.943 23.442 9.6998 23.131 8.23417C22.8058 6.75546 22.5512 5.49921 22.5512 5.43378C22.5654 5.38144 22.7351 5.70859 22.9613 6.17968C23.1734 6.65077 23.4986 7.30507 23.6683 7.64531C23.8238 7.98554 23.9652 8.31269 23.9652 8.37812C23.9652 8.44355 24.248 9.07167 24.5873 9.76523L25.2094 11.0476L25.3084 9.76523C25.4074 8.53515 25.3226 6.07499 25.1387 5.39452C25.0963 5.21132 25.0963 5.10663 25.1529 5.15898C25.2094 5.19823 25.3508 5.66933 25.4639 6.20585C25.5771 6.72929 25.9447 8.03788 26.2699 9.11093C26.9344 11.3225 26.9486 11.3094 27.2172 8.78378C27.3162 7.89394 27.4152 7.06952 27.4576 6.96484C27.5142 6.8078 27.8535 8.24726 28.2918 10.6158C28.3342 10.8514 28.4191 11.0084 28.4756 10.943C28.5463 10.8775 28.7726 9.883 28.9846 8.73144C29.7764 4.39999 29.7058 4.57011 29.7058 7.05644C29.6916 9.18945 29.932 11.1 30.1865 10.956C30.342 10.8644 31.3176 8.54823 32.0246 6.59843C32.6326 4.9496 32.6609 4.91034 32.4488 6.12733C32.3074 6.92558 31.8832 10.5242 31.8832 10.8121C31.8974 10.9953 33.5799 7.76308 34.1738 6.4414C34.4142 5.90488 34.6687 5.39452 34.7535 5.32909C34.8525 5.23749 34.8666 5.27675 34.8101 5.4207C34.7111 5.6955 34.0607 8.75761 33.9334 9.58202L33.8486 10.1709L34.1738 9.77831C35.0221 8.73144 35.7998 8.1164 36.7896 7.65839C38.1752 7.03027 39.1791 6.93866 40.084 7.38359C40.9183 7.78925 41.2152 8.33886 41.2152 9.45116C41.2152 10.5504 41.0314 11.1131 40.4375 11.9244C40.183 12.2908 39.9992 12.5918 40.0558 12.5918C40.0982 12.5918 40.3951 12.474 40.7062 12.3432C45.2166 10.3803 45.2308 10.4719 40.791 13.2984C39.9002 13.8611 39.264 14.293 39.3771 14.2668C39.4902 14.2275 40.4799 13.9266 41.5687 13.5994C42.6574 13.2723 44.2834 12.8012 45.1742 12.5394C46.673 12.1076 46.8285 12.0422 47.1537 11.5842C47.5637 11.0084 47.8607 10.498 47.8041 10.498C47.7617 10.498 46.1357 11.1916 45.4146 11.5187C45.259 11.5973 45.7822 10.8383 46.7295 9.64745C47.182 9.07167 47.5355 8.58749 47.5072 8.56132C47.493 8.53515 47.1254 8.66601 46.7154 8.84921C45.5277 9.34648 44.4389 9.73906 44.3824 9.67363C44.3541 9.64745 44.4389 9.47734 44.5803 9.30722C44.7359 9.1371 45.0894 8.66601 45.358 8.24726L45.867 7.51445L44.9197 7.99862C44.3965 8.26034 43.8027 8.58749 43.5906 8.71835C43.1664 8.98007 43.0816 8.87538 43.3785 8.46972C43.4916 8.32577 43.7603 7.92011 43.9865 7.5537L44.3965 6.91249L43.9017 7.25273C43.4068 7.59296 42.3463 8.06405 42.3463 7.9332C42.3463 7.89394 42.6291 7.44902 42.9826 6.95175C43.3361 6.45448 43.6189 6.00956 43.6189 5.98339C43.6189 5.94413 43.1664 6.21894 42.6008 6.57226C42.0494 6.92558 41.5687 7.20038 41.5404 7.17421C41.5121 7.14804 41.7101 6.78163 41.9787 6.36288C42.2615 5.94413 42.4453 5.57773 42.417 5.53847C42.3746 5.5123 41.9221 5.7871 41.399 6.15351C40.5365 6.78163 40.1264 6.95175 40.4658 6.54609C40.791 6.1666 41.7808 4.34765 41.6535 4.34765C41.5828 4.34765 41.4555 4.43925 41.3566 4.54394C41.1162 4.80566 39.4902 5.81327 39.4195 5.73476C39.3771 5.70859 39.4195 5.53847 39.5185 5.36835C39.6033 5.21132 39.3912 5.35527 39.0377 5.70859C38.6842 6.07499 38.359 6.32362 38.3166 6.29745C38.2742 6.25819 38.5004 5.85253 38.8115 5.40761C39.1226 4.96269 39.5467 4.2953 39.7447 3.91581L40.1123 3.23534L39.1084 4.17753C38.048 5.18515 38.0055 5.15898 38.4863 3.90273C38.5853 3.61484 38.656 3.37929 38.6277 3.35312C38.6135 3.32695 38.2035 3.77187 37.751 4.34765C37.2844 4.91034 36.8885 5.35527 36.8603 5.32909C36.832 5.31601 36.9168 4.97577 37.0299 4.59628C37.3834 3.41855 37.6379 2.59413 37.751 2.2539C37.8359 1.9791 37.7935 2.00526 37.4541 2.39784C37.2279 2.65956 36.6906 3.32695 36.2664 3.87656C35.4746 4.89726 35.2201 5.09355 35.3332 4.57011C35.3756 4.41308 35.4746 3.86347 35.5594 3.3662C35.6443 2.85585 35.7433 2.26698 35.7857 2.05761C35.8422 1.79589 35.616 2.07069 35.1353 2.84277C34.4283 4.00742 34.0041 4.53085 34.1879 4.04667C34.2445 3.91581 34.3435 3.44472 34.4283 2.9998C34.5131 2.55487 34.6404 1.92675 34.6969 1.5996C34.7676 1.27245 34.8101 0.99765 34.7959 0.984562C34.7818 0.958389 34.5131 1.4164 34.2021 1.99218C33.6082 3.13066 33.3537 3.32695 33.4951 2.54179C33.5658 2.18847 33.5517 2.10995 33.4385 2.2539C33.3396 2.39784 33.3113 2.29316 33.382 1.86132C33.4527 1.27245 33.4527 1.27245 32.9437 2.2539L32.4346 3.23534L32.4771 2.03144C32.5195 0.919132 32.5053 0.853703 32.3215 1.18085C32.2084 1.37714 31.9115 2.05761 31.657 2.71191L31.1904 3.88964L31.1762 2.51562L31.1621 1.14159L30.6389 2.41093C30.342 3.10448 30.0592 3.71952 30.0027 3.77187C29.8754 3.90273 29.8896 3.24843 30.0451 1.73046C30.1158 1.04999 30.1582 0.474213 30.1299 0.461124C30.1017 0.434952 29.8471 1.04999 29.5502 1.82206ZM12.0457 33.0844C12.0033 33.1236 11.876 33.1367 11.7771 33.0975C11.6639 33.0582 11.7064 33.0189 11.8619 33.0189C12.0174 33.0058 12.1023 33.0451 12.0457 33.0844ZM10.8156 35.466C10.8156 35.5183 10.5752 35.5707 10.2924 35.5838C9.82583 35.5969 9.79755 35.5838 10.1086 35.4922C10.5894 35.3482 10.8156 35.3351 10.8156 35.466ZM28.4474 36.0941C28.4049 36.1334 28.2777 36.1465 28.1787 36.1072C28.0656 36.068 28.108 36.0287 28.2635 36.0287C28.4191 36.0156 28.5039 36.0549 28.4474 36.0941ZM10.7449 36.2773C10.6318 36.4475 9.82583 36.84 9.741 36.7615C9.69858 36.7353 9.86825 36.6307 10.1086 36.5391C10.3349 36.4475 10.5328 36.3297 10.5328 36.2642C10.5328 36.1988 10.6035 36.1465 10.6883 36.1465C10.759 36.1465 10.7873 36.2119 10.7449 36.2773ZM10.0662 37.5859C9.86825 37.7299 9.62788 37.8476 9.51477 37.8476C9.41579 37.8476 9.52891 37.7299 9.75514 37.599C10.3207 37.2588 10.5187 37.2588 10.0662 37.5859ZM10.2076 38.3057C10.2076 38.4103 10.1652 38.4758 10.1369 38.4365C10.0945 38.3973 9.96723 38.4496 9.83997 38.5281C9.69858 38.6328 9.71272 38.5805 9.88239 38.3973C10.2076 38.057 10.2076 38.057 10.2076 38.3057ZM10.1086 38.8291C10.0096 38.9338 9.82583 39.0254 9.69858 39.0254C9.54305 39.0123 9.58546 38.96 9.82583 38.8291C10.2783 38.5935 10.3207 38.5935 10.1086 38.8291Z" fill="black"/>
<path d="M47.7193 11.7674C47.3658 11.8852 47.0547 12.0291 47.0406 12.0945C46.9558 12.2777 44.142 14.0051 42.6291 14.7902C41.8939 15.1697 41.4414 15.4576 41.6394 15.4315C41.8373 15.3922 42.5019 15.2875 43.124 15.209C43.7461 15.1305 45.1035 14.7902 46.1357 14.4762C48.2283 13.8088 48.8222 13.7695 46.9841 14.4107C45.1742 15.052 45.1177 15.0912 46.2347 15.0127C47.4082 14.9211 47.3234 15.0258 45.8812 15.5231C43.7179 16.2559 40.6779 17.3682 40.7203 17.4074C40.7486 17.4336 42.0918 17.2111 43.7179 16.9102C47.592 16.2035 49.5998 15.8633 49.6705 15.9156C49.7271 15.9811 49.2181 16.1381 45.1035 17.4336L41.8515 18.4543L43.4068 18.4412C45.8529 18.415 50.3916 18.6375 49.9816 18.7553C49.7836 18.8076 48.4828 19.0693 47.083 19.3311C43.4492 20.0246 42.3181 20.2863 42.8695 20.2994C43.5341 20.3256 49.0484 21.3986 50.0381 21.6996C50.5472 21.8566 50.1937 21.8697 47.083 21.8043C45.1459 21.765 43.3644 21.7127 43.124 21.6865C42.5302 21.5949 42.7847 21.6996 44.2552 22.0791C44.9621 22.2754 46.3619 22.7203 47.3658 23.0867C48.3838 23.4531 49.5574 23.8719 49.9816 24.0158C50.83 24.3037 51.2683 24.5654 50.6886 24.4477C50.2078 24.343 43.4351 23.584 43.3927 23.6232C43.3644 23.6494 43.6472 23.741 44.0148 23.8457C44.9056 24.0943 51.2117 27.0648 51.0845 27.1826C51.042 27.235 49.7554 26.9078 47.3658 26.2535C46.7437 26.0834 46.2205 26.0049 46.1922 26.0703C46.164 26.1357 45.9519 26.4106 45.7256 26.6723L45.3015 27.1695L45.3722 26.6461C45.4146 26.3713 45.5418 26.0703 45.655 25.9918C45.867 25.8609 45.7398 25.7563 45.0187 25.4553C44.9763 25.4422 44.9338 25.5076 44.9338 25.5992C44.9338 25.7039 45.047 25.7432 45.2025 25.7039C45.6267 25.6123 45.4994 26.0311 44.948 26.5676C44.439 27.0518 44.3966 26.9994 44.6793 26.2666C44.7783 26.0049 44.7783 26.0049 44.5097 26.2666C44.3683 26.4236 44.142 26.6199 44.0148 26.7115C43.7886 26.8686 43.7744 26.8293 43.8451 26.175L43.9158 25.4815L43.5482 26.0311C43.3361 26.3451 43.1099 26.5938 43.0392 26.5938C42.9826 26.5938 42.9685 26.2928 43.0109 25.9395C43.0533 25.5731 43.0533 25.2852 43.025 25.2852C42.9826 25.2852 42.8412 25.4945 42.714 25.7432C42.417 26.319 42.1484 26.2143 42.2757 25.5861C42.3888 25.0234 42.1343 25.115 41.9929 25.6777C41.8797 26.175 41.6394 26.1881 41.6252 25.7039C41.6252 25.5076 41.5828 25.4422 41.5404 25.5469C41.3425 26.1096 41.3142 26.1227 41.2152 25.7432L41.1021 25.3506L41.0879 25.7039C41.0738 26.0965 40.791 26.2273 40.791 25.8479C40.791 25.6516 40.7627 25.6516 40.5931 25.874C40.4234 26.0965 40.3951 26.0834 40.2113 25.5992L40.0275 25.0889L39.9427 25.5469L39.8437 26.0049L39.6599 25.6123L39.4619 25.2197L39.3912 25.7824L39.3064 26.3582L39.0236 25.9133L38.7408 25.4815L38.656 26.0703C38.6136 26.3975 38.557 26.5938 38.5429 26.5283C38.5429 26.4498 38.3591 26.2143 38.1611 26.0049C37.8925 25.7039 37.8218 25.6777 37.8783 25.874C37.9207 26.018 37.9914 26.3059 38.048 26.5283L38.147 26.9209L37.6945 26.5283L37.2562 26.1488L37.341 26.5938L37.44 27.0518L36.9734 26.6592C36.6058 26.3451 36.5492 26.3189 36.6765 26.5545C36.7613 26.7115 36.832 26.9471 36.832 27.0648C36.832 27.2611 36.7754 27.2481 36.4785 26.9863L36.125 26.6723L36.2099 27.1303C36.3088 27.5621 36.3088 27.5752 36.0261 27.3527C35.6443 27.0387 35.5595 27.0518 35.5595 27.4574V27.8107L35.2625 27.4574C34.8666 26.9994 34.7818 27.1041 35.0504 27.693C35.2908 28.2295 35.2625 28.2426 34.7818 27.9547C34.4283 27.7453 34.4283 27.7453 34.5132 28.151C34.6121 28.5697 34.4707 28.6744 34.1738 28.3996C33.9617 28.2033 33.9476 28.3604 34.1597 28.7006C34.2869 28.9361 34.2728 28.9492 33.9052 28.8707C33.5234 28.7791 33.5093 28.7922 33.7638 29.0408C34.1031 29.3941 34.0607 29.4857 33.6365 29.3418C33.1558 29.1717 33.0568 29.1717 33.2689 29.368C33.3679 29.4596 33.4386 29.6297 33.4386 29.7475C33.4386 29.9438 33.3537 29.9699 32.9154 29.9045L32.3781 29.826L32.774 30.1531C33.1275 30.441 33.1416 30.4934 32.9437 30.5719C32.8164 30.6111 32.5761 30.6504 32.4064 30.6504C32.1377 30.6635 32.1519 30.6897 32.5195 30.8859L32.9437 31.1084L32.3922 31.1738L31.8408 31.2393L32.2084 31.4225C32.7175 31.6711 32.6892 31.8281 32.1377 31.8412C31.6994 31.8412 31.6853 31.8543 31.9963 31.9852C32.4488 32.1945 32.3922 32.2861 31.7136 32.4824L31.1056 32.6525L31.6711 32.7965L32.2367 32.9535L31.7418 33.1367C31.4732 33.2414 31.148 33.4115 31.0349 33.5031C30.8652 33.6732 30.8793 33.6863 31.148 33.6078C31.3177 33.5555 31.558 33.5686 31.6853 33.634C31.8832 33.7387 31.8267 33.8041 31.3742 34.0658L30.8228 34.3799L31.2894 34.4453L31.7418 34.5107L31.3177 34.7725C30.7804 35.1127 30.7804 35.2043 31.3601 35.2566L31.8125 35.2959L31.3601 35.5314C30.7945 35.8063 30.7521 36.1072 31.2894 36.1727L31.6711 36.2119L31.1763 36.5129C30.7379 36.7615 30.7238 36.8008 31.0066 36.8008C31.2752 36.8008 31.3035 36.84 31.1904 37.0494C31.0632 37.2588 31.0914 37.2719 31.4308 37.2195L31.8125 37.1541L31.5156 37.4682C31.0349 37.9785 31.0066 38.0832 31.3884 38.0047C31.8267 37.9393 31.8408 38.0701 31.4308 38.4758L31.1056 38.8029L31.5722 38.7244C32.067 38.6328 32.0953 38.659 31.8832 39.0123C31.756 39.2348 31.9115 39.2609 34.4 39.3264C36.9593 39.3918 38.0056 39.274 36.6199 39.0777C35.9695 38.9992 35.9554 38.9861 36.2806 38.816C36.6058 38.6459 36.5775 38.6459 35.9129 38.6328H35.206L35.9129 38.3057C36.3371 38.1225 36.4785 38.0047 36.2664 38.0439C36.0685 38.0701 35.6726 38.1356 35.3898 38.1748C34.6545 38.2795 34.7252 38.1094 35.5312 37.7561C35.8988 37.5859 36.0685 37.4813 35.9129 37.5074C34.7252 37.7299 34.6828 37.743 34.7677 37.599C34.8242 37.5205 34.5414 37.5729 34.1314 37.7168C33.7355 37.8738 33.382 37.9654 33.3537 37.9393C33.3113 37.9131 33.6224 37.6775 34.0324 37.4158C34.8525 36.8793 34.8525 36.8531 34.0041 37.1279C32.9295 37.4813 32.7599 37.3766 33.4951 36.8531C33.8627 36.5914 34.1455 36.3559 34.1031 36.3297C34.0748 36.3035 33.7213 36.3559 33.3254 36.4606C32.9154 36.5522 32.5902 36.5914 32.5902 36.5522C32.5902 36.5129 33.0002 36.2119 33.5093 35.8979C34.0183 35.5838 34.4283 35.3221 34.4283 35.2959C34.4283 35.2828 34.0041 35.3744 33.481 35.5184C32.2367 35.8324 31.8267 35.7539 32.972 35.4268L33.8486 35.165L33.1134 35.0996L32.3781 35.0342L33.6224 34.6023C34.3011 34.3668 34.8525 34.1313 34.8525 34.092C34.8525 34.0527 34.2304 34.0527 33.481 34.1051L32.0953 34.1836L32.8023 33.935C33.1982 33.791 33.891 33.5686 34.3576 33.4508C34.8808 33.3068 35.0929 33.2022 34.9232 33.176C34.7677 33.1498 34.2586 32.9928 33.792 32.8357L32.9437 32.5479L34.2869 32.4824L35.6302 32.417L34.5273 31.9066C33.9193 31.6318 33.4527 31.3701 33.4951 31.3439C33.5234 31.3178 33.8203 31.357 34.1597 31.4225C34.499 31.4879 35.0504 31.5795 35.3898 31.6188L35.9978 31.6711L35.3615 31.3047C35.008 31.0953 34.5273 30.8336 34.2728 30.7158C33.5658 30.3756 33.8627 30.3756 35.1777 30.7027L36.3937 31.0168L35.9978 30.5326C35.2908 29.7082 35.3191 28.8445 36.0402 28.5436C36.5068 28.3473 36.9451 28.465 37.7228 29.0147L38.3732 29.4727L38.2177 29.0408C37.9207 28.1641 37.949 28.1248 38.3732 28.8053C38.6136 29.1979 38.8539 29.5512 38.8963 29.5904C38.9812 29.669 38.9105 29.0408 38.7408 28.2949C38.6984 28.1117 38.8822 28.3996 39.1509 28.91C39.4195 29.4334 39.6599 29.8652 39.6882 29.8652C39.7164 29.8652 39.7164 29.4334 39.7023 28.91L39.6599 27.9678L39.9568 28.9231C40.1265 29.4465 40.2961 29.8391 40.3386 29.7998C40.381 29.7606 40.4093 29.3025 40.4093 28.7791L40.3951 27.8369L40.5789 28.3604C40.6779 28.6482 40.7769 29.0408 40.7769 29.2371C40.8052 29.9045 41.0738 29.6166 41.0879 28.91C41.0879 28.4127 41.1304 28.2949 41.2152 28.4912C41.2859 28.6352 41.3425 28.9361 41.3425 29.1717C41.3566 29.8652 41.5828 29.7736 41.7808 28.9754C42.0636 27.7715 42.1908 27.7584 42.1201 28.9492C42.0636 30.0484 42.0636 30.0484 42.2615 29.5381C42.3746 29.2502 42.5584 28.7137 42.6716 28.3604L42.8836 27.7061L42.8271 28.7529L42.7564 29.7998L43.2654 28.9492C43.5906 28.3996 43.7461 28.2295 43.6896 28.4781C43.3785 29.8522 43.4209 29.8783 44.1703 28.7529C44.6511 28.0332 44.7218 28.0201 44.3966 28.7268C44.0996 29.3941 44.1138 29.4072 44.8066 28.9492C45.4711 28.5043 46.2771 28.3865 46.6588 28.6875C46.9982 28.9492 46.9275 29.8914 46.5175 30.441C46.1216 30.9775 46.1074 30.9775 47.1537 30.7158C48.5818 30.3625 48.6101 30.4803 47.2951 31.1738L46.5175 31.5795L47.3658 31.501C47.8324 31.4617 48.4121 31.3963 48.6384 31.357L49.0625 31.2916L48.6384 31.5272C48.4121 31.6711 47.9031 31.8936 47.5072 32.0244L46.8002 32.2731L48.0728 32.417L49.3453 32.5479L48.2566 32.8619L47.1679 33.176L48.2849 33.5293C48.8929 33.7387 49.5009 33.9611 49.6422 34.0397C49.9109 34.1836 49.6705 34.1836 47.7193 33.9742L47.083 33.9088L48.0021 34.3406C48.5111 34.5631 49.1191 34.8379 49.3453 34.9164L49.7695 35.0734L49.2039 35.0996L48.6384 35.1258L49.0625 35.2566C49.5009 35.4006 49.8826 35.6231 49.7978 35.7016C49.7836 35.7277 49.416 35.6623 48.9918 35.5576C48.1152 35.3482 47.9879 35.3744 48.4545 35.6885C48.6384 35.8063 49.006 36.0549 49.2746 36.2381L49.7695 36.5652L49.1756 36.4867C48.8504 36.4475 48.4687 36.3689 48.3273 36.3297C48.1859 36.2904 48.398 36.526 48.7797 36.8662C49.4584 37.442 49.4726 37.4682 49.0625 37.3897C48.8363 37.3373 48.4545 37.2457 48.2283 37.1803C48.0021 37.1148 47.8041 37.0625 47.7759 37.0625C47.7476 37.0625 48.0021 37.2981 48.3273 37.599C48.9494 38.1486 48.8787 38.1486 47.9314 37.6121C47.5072 37.3635 47.4224 37.3373 47.5779 37.5205C47.7759 37.743 47.7617 37.7561 47.4365 37.6906C47.2386 37.6383 46.8568 37.5729 46.5882 37.5336C46.1216 37.4551 46.1357 37.4813 46.8002 37.7953L47.5072 38.1225L46.6306 38.0832C45.6691 38.0439 45.6408 38.1094 46.5175 38.3842L47.083 38.5674L46.3054 38.6459C45.8812 38.6852 45.6408 38.7244 45.7822 38.7375C46.3336 38.7898 45.966 38.9992 45.1601 39.0777C43.4209 39.2609 44.5945 39.3918 47.2244 39.3133C49.7554 39.2217 49.9109 39.2086 49.8685 38.9731C49.8261 38.7898 49.8826 38.7375 50.0947 38.7898C50.3916 38.8684 50.4058 38.7375 50.1795 38.0832C50.1088 37.8607 50.1371 37.8215 50.3209 37.8869C50.9996 38.1486 51.042 38.1486 50.7593 37.9262L50.4765 37.7168L50.7593 37.8084C51.042 37.8869 51.042 37.8869 50.7734 37.6121C50.4482 37.2588 50.5896 37.0625 50.9431 37.3635C51.2966 37.6645 51.4379 37.6383 51.2541 37.3242C51.1693 37.1934 51.1269 37.0232 51.141 36.9447C51.1693 36.8793 50.9572 36.6307 50.6886 36.4082L50.1937 35.9895L50.9713 36.3428C51.3955 36.5391 51.848 36.7746 51.9752 36.8793C52.1732 37.0363 52.1873 36.9709 52.0742 36.1857C52.0177 35.7016 52.0035 35.2828 52.0318 35.2436C52.0742 35.2043 52.3146 35.2828 52.555 35.4268C52.9933 35.6623 52.9933 35.6623 52.8802 35.4137C52.6681 34.9033 52.3853 34.0135 52.4418 33.9611C52.4701 33.9219 52.7529 34.0266 53.0781 34.1836C53.6861 34.4584 53.7992 34.4061 53.4457 33.9742C53.1488 33.6078 53.1912 33.5162 53.6295 33.6078L54.0113 33.6863L53.5588 33.3854C53.0074 33.0059 52.9509 32.8357 53.4599 33.0059C53.6578 33.0844 53.8416 33.1367 53.8841 33.1367C54.0537 33.1367 53.8841 32.7311 53.4457 32.0898C53.1912 31.6973 52.9933 31.357 53.0074 31.3309C53.0357 31.3047 53.4316 31.4094 53.8841 31.5664C54.3365 31.7104 54.7324 31.8281 54.7607 31.8281C54.789 31.8281 54.6617 31.658 54.4779 31.4356C54.3082 31.2262 53.9972 30.8598 53.8134 30.6373L53.474 30.2447L54.0254 30.3232L54.5769 30.4148L53.9406 29.8129L53.3185 29.2109H53.9406L54.5769 29.1979L53.7992 28.5566L53.0216 27.9154L53.5164 28.0201C54.9586 28.3604 54.9304 28.3604 54.1527 27.7322L53.4457 27.1434L54.1244 27.2088C54.492 27.2481 54.789 27.2481 54.789 27.2088C54.789 27.1565 54.5345 26.9994 54.2234 26.8555C53.5588 26.5414 53.5164 26.476 54.0537 26.5545L54.4355 26.6068L54.0679 26.3059C53.8558 26.1357 53.474 25.8479 53.2195 25.6516L52.7388 25.2852L53.1347 25.3506C53.3468 25.3898 53.6861 25.4422 53.9123 25.4815C54.2375 25.5469 54.181 25.4684 53.4457 24.8533L52.5974 24.1336L53.2336 24.2514C54.1386 24.4084 54.1951 24.3953 53.8275 24.1074C53.6437 23.9635 53.2195 23.7803 52.9084 23.7018C51.6359 23.3877 51.65 23.0475 52.9226 23.1391L53.8699 23.2176L53.375 22.9166C52.159 22.21 51.9611 22.0791 51.9611 22.0006C51.9611 21.9482 52.2863 21.9744 52.6822 22.0399C53.0781 22.1053 53.4599 22.1445 53.5306 22.1184C53.6013 22.0922 53.2054 21.8436 52.6681 21.5557C51.6642 21.0191 51.3955 20.7443 52.0318 20.8883C52.2156 20.9275 52.7812 21.0061 53.2619 21.0453L54.1527 21.1107L52.5974 20.3518L51.042 19.5928L52.2297 19.5273L53.4316 19.4619L52.2297 19.017C49.9675 18.1664 49.925 17.9701 52.0318 17.944L53.3043 17.9309L52.6681 17.7607C52.3146 17.6561 51.749 17.5121 51.4097 17.4336C50.9855 17.3289 50.8441 17.2504 50.9713 17.1719C51.0845 17.1065 50.8724 17.041 50.4199 16.9756C50.024 16.9232 49.6705 16.8447 49.6281 16.7793C49.5716 16.6877 51.7631 15.9025 52.2439 15.8371C52.357 15.824 51.6642 15.7717 50.6886 15.7324L48.9211 15.667L49.8402 15.0258L50.7593 14.3846L49.4584 14.4631C47.8748 14.5678 47.8748 14.5023 49.2888 13.4293C49.8261 13.0236 50.2502 12.6703 50.222 12.6441C50.1937 12.618 49.6564 12.7096 49.0201 12.8666C48.3838 13.0106 47.691 13.1152 47.4789 13.0891L47.0972 13.0498L47.7617 12.3563C48.3414 11.7674 48.5252 11.5188 48.398 11.558C48.3697 11.558 48.0728 11.6627 47.7193 11.7674ZM47.8324 27.1041C49.4302 28.1772 50.3209 28.8184 50.2361 28.8184C50.1937 28.8184 49.6564 28.609 49.0484 28.3473C48.4263 28.0856 47.691 27.8631 47.4082 27.85C46.8851 27.8369 46.8002 27.7453 46.8568 27.2742C46.8851 27.0779 46.6447 27.0648 46.5175 27.2611C46.4609 27.3397 46.3336 27.3658 46.2347 27.3266C46.1357 27.3004 45.9943 27.3266 45.9095 27.4051C45.7822 27.5229 46.0791 26.5676 46.2488 26.3059C46.3478 26.1619 46.772 26.3713 47.8324 27.1041ZM48.7091 29.0539C48.5535 29.0801 48.299 28.9754 48.1152 28.8314L47.8041 28.5566L48.398 28.7791C48.8222 28.9492 48.907 29.0277 48.7091 29.0539ZM48.8504 29.4072C48.6949 29.5773 48.7373 29.5904 49.1191 29.525C49.3877 29.4727 49.5574 29.4988 49.5574 29.5773C49.5574 29.6559 49.7836 29.7867 50.0664 29.8652C50.3351 29.9568 50.5472 30.0484 50.5047 30.0746C50.4765 30.1008 50.1513 30.0354 49.7836 29.9176C49.2888 29.7606 49.0767 29.7475 48.9353 29.8522C48.7797 29.9699 48.7232 29.9438 48.6666 29.7475C48.6384 29.6035 48.6666 29.4334 48.7515 29.3549C48.9777 29.1455 49.0484 29.1848 48.8504 29.4072ZM50.024 30.6111C49.925 30.6373 49.7271 30.6373 49.5998 30.6111C49.4584 30.5719 49.5433 30.5457 49.7695 30.5457C50.0099 30.5457 50.1088 30.5719 50.024 30.6111ZM50.9572 32.4301C51.0986 32.5479 50.1795 32.4693 49.9816 32.3516C49.8402 32.2731 49.9533 32.26 50.3351 32.3123C50.6461 32.3516 50.9289 32.4039 50.9572 32.4301ZM50.3634 33.477C50.3209 33.5162 50.1937 33.5293 50.0947 33.49C49.9816 33.4508 50.024 33.4115 50.1795 33.4115C50.3351 33.3984 50.4199 33.4377 50.3634 33.477ZM50.9855 34.6678C51.1693 34.8772 51.1552 34.8902 50.9431 34.7201C50.7027 34.55 50.632 34.4453 50.7451 34.4453C50.7734 34.4453 50.8865 34.55 50.9855 34.6678ZM51.0279 35.1781C51.1127 35.3744 51.0845 35.3744 50.8724 35.2174C50.731 35.1258 50.5896 35.0211 50.5613 35.008C50.533 34.9818 50.6037 34.9688 50.7168 34.9688C50.8441 34.9688 50.9855 35.0604 51.0279 35.1781ZM51.2541 35.7539C51.2541 35.8193 51.1552 35.8455 51.042 35.8063C50.9289 35.7539 50.83 35.7016 50.83 35.6754C50.83 35.6492 50.9289 35.6231 51.042 35.6231C51.1552 35.6231 51.2541 35.6754 51.2541 35.7539Z" fill="black"/>
<path d="M20.5576 14.9342C20.0627 15.3006 20.091 16.1773 20.6141 16.5961C21.2504 17.1064 21.9998 17.0017 22.3533 16.3605C22.6361 15.8502 22.5088 15.1566 22.0846 14.8818C21.6746 14.607 20.9535 14.6332 20.5576 14.9342ZM21.0949 15.1566C21.1373 15.2613 21.109 15.4183 21.01 15.5099C20.8121 15.6931 20.3455 15.3136 20.4869 15.0912C20.6283 14.8818 20.9959 14.9211 21.0949 15.1566Z" fill="black"/>
<path d="M33.184 14.7771C33.085 14.8164 32.9154 15.0127 32.7881 15.2351C32.5053 15.7324 32.6467 16.2951 33.1133 16.6484C34.2727 17.4859 35.6867 15.9679 34.6404 15.0127C34.3152 14.6986 33.6648 14.5939 33.184 14.7771ZM33.693 15.2482C33.7213 15.3922 33.6506 15.4707 33.4668 15.4707C33.1275 15.4707 33.0143 15.366 33.1133 15.1304C33.2123 14.8687 33.6365 14.9603 33.693 15.2482Z" fill="black"/>
<path d="M26.581 19.2525C25.8882 19.6451 25.6195 19.9984 25.6195 20.548C25.6195 21.9221 27.3728 22.7726 28.6877 22.0267C29.6775 21.451 29.9461 20.2601 29.2392 19.632C29.0129 19.4488 28.7019 19.2263 28.5322 19.1478C28.0656 18.9254 27.0617 18.9777 26.581 19.2525Z" fill="black"/>
<path d="M26.2275 22.6418C26.2275 22.6941 26.3265 22.8643 26.4396 23.0213C26.8779 23.5971 28.4474 23.5709 28.8574 22.982C29.1826 22.5371 28.9846 22.4193 28.5463 22.8119C28.0656 23.2307 27.2172 23.2307 26.7506 22.825C26.4113 22.524 26.2275 22.4586 26.2275 22.6418Z" fill="black"/>
<path d="M38.1186 31.7496C37.7369 32.1683 38.5004 32.6918 38.9246 32.2992C39.1791 32.0637 39.0518 31.7103 38.6701 31.5926C38.5711 31.5533 38.5287 31.5926 38.5852 31.6842C38.6418 31.7627 38.5852 31.8281 38.458 31.8281C38.3307 31.8281 38.2742 31.7627 38.3166 31.6973C38.4439 31.501 38.3025 31.5402 38.1186 31.7496Z" fill="black"/>
<path d="M43.435 31.658C43.2229 31.8543 43.3502 32.3385 43.6188 32.417C43.9723 32.5217 44.3258 32.2861 44.3258 31.959C44.3258 31.6842 43.944 31.5141 43.8451 31.7365C43.8027 31.8543 43.7461 31.8543 43.6613 31.7234C43.5906 31.6318 43.4916 31.6057 43.435 31.658Z" fill="black"/>
<path d="M40.692 33.2021C40.4092 33.3199 40.2254 33.477 40.2254 33.634C40.2254 33.9742 40.8051 34.4453 41.2293 34.4453C41.6252 34.4453 42.2049 33.9611 42.2049 33.634C42.2049 33.1629 41.3707 32.9143 40.692 33.2021Z" fill="black"/>
<path d="M17.8853 33.6471C17.8853 33.7518 17.7863 33.791 17.6025 33.7518C17.2632 33.6732 17.1218 33.8303 17.249 34.1967C17.3904 34.5893 18.0832 34.4977 18.1398 34.0658C18.1681 33.8957 18.1257 33.6994 18.0408 33.6209C17.9277 33.5162 17.8853 33.5293 17.8853 33.6471Z" fill="black"/>
<path d="M22.4664 33.6994C22.325 34.0658 22.4664 34.3799 22.834 34.4191C23.2724 34.4846 23.5834 34.1182 23.3855 33.7779C23.2158 33.4639 22.9754 33.4639 22.9754 33.7518C22.9613 33.9611 22.9472 33.9611 22.7633 33.7387C22.5795 33.5162 22.5513 33.5162 22.4664 33.6994Z" fill="black"/>
<path d="M40.7062 34.7724C41.1021 35.0472 41.9221 34.9949 41.9221 34.6939C41.9221 34.6154 41.7807 34.6285 41.6252 34.7201C41.399 34.8248 41.2293 34.8248 40.9748 34.7201C40.5082 34.5238 40.3809 34.55 40.7062 34.7724Z" fill="black"/>
<path d="M19.5537 35.2436C19.1861 35.4398 19.2426 35.9502 19.6668 36.2643C19.8789 36.4213 20.1334 36.5391 20.2465 36.5391C20.501 36.5391 21.1373 35.9502 21.1373 35.7016C21.1373 35.1912 20.1617 34.9164 19.5537 35.2436Z" fill="black"/>
<path d="M19.582 36.7092C19.8082 36.9971 20.7273 36.9709 20.8262 36.6699C20.8828 36.5129 20.8545 36.4998 20.699 36.6306C20.6 36.7223 20.3455 36.8008 20.1475 36.8008C19.9496 36.8008 19.6951 36.7223 19.582 36.6306C19.4123 36.4998 19.4123 36.5129 19.582 36.7092Z" fill="black"/>
<path d="M25.775 39.3787C25.9447 39.4049 26.1992 39.4049 26.3406 39.3787C26.4678 39.3394 26.3264 39.3133 26.0154 39.3263C25.7043 39.3263 25.5912 39.3525 25.775 39.3787Z" fill="black"/>
</svg>
