<?xml version="1.0" standalone="no"?>
<!DOCTYPE svg PUBLIC "-//W3C//DTD SVG 20010904//EN"
        "http://www.w3.org/TR/2001/REC-SVG-20010904/DTD/svg10.dtd">
<svg version="1.0" xmlns="http://www.w3.org/2000/svg"
     width="666.000000pt" height="375.000000pt" viewBox="0 0 666.000000 375.000000"
     preserveAspectRatio="xMidYMid meet">

    <g transform="translate(0.000000,375.000000) scale(0.100000,-0.100000)"
       fill="#000000" stroke="none">
        <path d="M3371 2751 c-10 -6 -12 -18 -6 -37 13 -55 17 -114 7 -114 -6 0 -30 8
-54 19 -211 90 -695 85 -630 -7 28 -41 62 -116 55 -122 -4 -4 -51 -3 -103 2
-215 20 -481 -36 -672 -141 -120 -66 -123 -79 -33 -130 56 -32 64 -51 21 -51
-38 0 -127 -32 -256 -93 -124 -58 -318 -215 -336 -270 -7 -22 18 -43 61 -50
48 -8 107 -35 100 -47 -3 -6 -25 -20 -48 -31 -106 -53 -290 -222 -304 -278 -8
-32 18 -51 69 -51 34 0 126 -17 136 -26 2 -1 -16 -20 -40 -40 -64 -57 -150
-144 -178 -182 -45 -61 -110 -187 -110 -214 l0 -28 105 0 c58 0 105 -2 105 -4
0 -2 -31 -35 -68 -72 -46 -47 -78 -91 -100 -137 -18 -37 -32 -72 -32 -78 0
-32 63 -35 599 -33 293 2 540 5 548 9 12 4 14 15 8 53 -15 105 -97 199 -210
241 -82 31 -239 29 -315 -2 -63 -26 -155 -90 -164 -114 -8 -21 21 -53 49 -53
12 0 32 12 46 26 84 90 240 114 373 59 53 -22 135 -113 121 -135 -9 -15 -935
-14 -935 1 0 24 44 81 107 138 69 64 166 123 248 151 41 14 51 21 53 43 6 53
-72 46 -193 -17 -54 -28 -65 -30 -82 -19 -10 7 -47 16 -81 19 -34 4 -62 10
-62 14 0 20 85 134 146 196 88 89 180 154 287 204 47 21 88 44 92 50 4 6 -1
20 -11 32 -24 26 -67 19 -151 -23 l-63 -32 -58 22 c-33 11 -68 21 -80 21 -38
0 -33 18 19 64 163 146 410 258 604 273 99 7 117 16 113 51 l-3 27 -100 -1
c-103 -2 -159 -14 -278 -57 l-69 -25 -43 29 c-24 16 -48 29 -53 29 -19 0 -24
20 -10 37 31 38 167 129 255 170 171 80 399 122 583 107 71 -5 88 -4 99 9 7 9
10 25 7 35 -8 25 -68 33 -226 31 l-119 -1 -46 38 -46 39 27 21 c28 23 217 88
301 104 166 31 391 16 550 -36 88 -28 113 -24 113 17 0 25 -30 44 -104 65
l-62 18 -20 63 c-11 35 -18 66 -15 68 2 3 57 5 122 5 165 0 285 -26 454 -100
17 -8 62 -38 101 -67 39 -29 79 -53 88 -53 25 0 56 19 56 33 0 19 -68 80 -123
112 -40 23 -48 32 -43 49 3 12 6 40 6 64 l0 43 58 -6 c138 -15 299 -83 405
-170 77 -64 159 -169 183 -235 16 -42 46 -80 64 -80 21 0 41 34 35 59 -8 33
-57 134 -69 143 -7 5 51 134 70 157 6 7 85 -21 147 -51 133 -66 215 -147 278
-273 32 -64 41 -96 47 -163 5 -45 6 -85 3 -87 -2 -3 -55 -5 -117 -5 -171 0
-369 -44 -523 -117 l-73 -35 -37 36 c-45 44 -83 56 -176 56 -56 0 -82 -5 -123
-26 -60 -30 -112 -85 -112 -119 0 -33 42 -80 98 -106 26 -12 63 -34 82 -48 19
-14 37 -27 40 -28 2 -2 -10 -32 -28 -66 -91 -180 -88 -409 7 -560 27 -41 35
-47 66 -47 31 0 35 3 35 25 0 14 -12 44 -26 66 -85 136 -78 388 16 517 16 23
30 49 30 58 0 34 -54 85 -138 130 -48 26 -89 49 -92 51 -10 9 65 61 103 73 30
9 51 9 88 0 47 -11 99 -51 99 -75 0 -17 33 -45 53 -45 9 0 31 10 50 23 33 22
132 73 172 88 124 47 220 63 409 68 153 5 180 8 190 23 7 12 7 51 -2 134 -10
103 -16 128 -50 198 -84 175 -237 305 -440 375 -34 11 -84 21 -111 21 -52 0
-61 -8 -61 -55 0 -25 -29 -95 -40 -95 -3 0 -20 13 -38 29 -136 125 -253 185
-430 222 -98 20 -217 25 -241 10z"/>
        <path d="M4808 1868 c-44 -15 -34 -42 50 -129 118 -124 330 -270 492 -338 127
-54 133 -85 28 -163 -279 -208 -624 -381 -963 -484 -134 -40 -151 -41 -177 -9
-29 37 -96 80 -156 100 -41 13 -77 16 -155 13 -88 -3 -111 -8 -168 -34 -132
-62 -188 -164 -90 -164 10 0 32 16 50 35 124 137 401 112 480 -42 7 -14 8 -24
1 -28 -5 -3 -423 -6 -927 -6 -929 0 -959 -1 -970 -34 -2 -6 3 -20 11 -30 14
-20 31 -20 980 -18 531 1 975 5 986 8 16 5 20 15 20 50 0 44 1 44 43 55 23 6
88 25 144 42 l103 31 22 -28 c43 -54 47 -60 48 -67 0 -5 -51 -8 -114 -8 -91 0
-118 -3 -130 -16 -9 -8 -16 -19 -16 -24 0 -5 7 -16 16 -24 22 -23 315 -24 334
-1 19 23 6 78 -34 143 l-35 57 37 17 c297 137 408 196 578 309 131 87 340 245
359 272 19 28 19 77 0 104 -30 43 -118 39 -160 -7 -16 -18 -21 -16 -128 34
-179 85 -328 188 -436 301 -42 45 -80 83 -86 87 -5 3 -22 1 -37 -4z"/>
        <path d="M4680 1679 c-62 -25 -76 -68 -40 -119 27 -37 77 -54 116 -40 78 30
98 98 43 144 -32 28 -74 33 -119 15z"/>
    </g>
</svg>
