<?xml version="1.0" standalone="no"?>
<!DOCTYPE svg PUBLIC "-//W3C//DTD SVG 20010904//EN"
<svg version="1.0" xmlns="http://www.w3.org/2000/svg"
 width="832.000000pt" height="1216.000000pt" viewBox="0 0 832.000000 1216.000000"
 preserveAspectRatio="xMidYMid meet">

<g transform="translate(0.000000,1216.000000) scale(0.100000,-0.100000)"
fill="#000000" stroke="none">
<path d="M6940 11053 c0 -54 -10 -63 -74 -70 -45 -5 -56 -9 -54 -22 2 -12 17
-17 60 -19 l57 -3 3 -77 c3 -69 5 -77 23 -77 18 0 20 8 23 77 l3 77 57 3 c43
2 57 7 57 18 0 11 -14 16 -57 18 -58 3 -58 3 -58 35 0 47 -10 77 -26 77 -9 0
-14 -12 -14 -37z"/>
<path d="M2026 10908 c-3 -13 -6 -40 -6 -60 0 -37 -1 -38 -39 -38 -49 0 -71
-8 -71 -26 0 -10 13 -14 43 -14 23 0 47 -4 54 -8 7 -4 13 -37 15 -77 2 -57 6
-70 21 -73 15 -3 17 5 17 61 0 88 4 97 50 97 48 0 70 8 70 26 0 9 -18 14 -57
16 l-58 3 -5 54 c-5 57 -23 78 -34 39z"/>
<path d="M6120 10310 c-16 -50 -32 -59 -82 -53 -48 7 -49 -6 -3 -41 28 -21 34
-32 30 -52 -3 -13 -7 -35 -10 -49 l-6 -26 41 21 c42 22 50 20 87 -13 31 -27
37 -18 25 38 l-10 46 47 32 46 32 -55 5 c-54 5 -55 6 -70 47 -21 58 -25 59
-40 13z"/>
<path d="M1360 10295 c-6 -14 -10 -30 -10 -35 0 -15 -37 -30 -74 -30 -44 0
-45 -9 -3 -35 30 -19 32 -25 31 -73 l-2 -52 30 25 c33 28 54 27 101 -6 30 -22
34 -14 15 38 -11 31 -10 35 20 66 35 36 41 53 16 43 -9 -4 -32 -4 -50 0 -28 5
-34 11 -40 40 -8 44 -22 52 -34 19z"/>
<path d="M4520 10183 c-1 -10 -14 -56 -29 -103 -22 -65 -30 -80 -36 -65 -4 11
-10 29 -15 40 -4 11 -11 33 -16 49 -5 16 -15 31 -22 34 -17 5 -52 -74 -52
-120 0 -20 -4 -40 -10 -43 -5 -3 -10 -27 -10 -53 0 -44 -18 -197 -40 -336 -5
-33 -15 -64 -21 -70 -13 -12 -9 93 12 377 8 115 9 174 2 190 -9 20 -14 15 -49
-55 -39 -80 -54 -95 -54 -55 0 17 -2 19 -10 7 -7 -11 -11 -8 -20 15 -7 17 -14
45 -17 63 -3 18 -9 35 -14 37 -12 8 -22 -33 -15 -61 9 -33 2 -30 -41 17 l-37
41 -12 -34 c-6 -19 -22 -54 -34 -79 l-23 -44 -9 33 c-5 17 -13 32 -18 32 -6 0
-16 15 -24 33 -13 29 -13 20 -10 -98 4 -129 4 -130 -12 -90 -11 25 -19 84 -23
160 l-6 120 -19 -74 c-27 -107 -18 -257 29 -476 20 -93 47 -231 61 -305 14
-74 28 -142 31 -150 3 -8 11 12 18 45 12 56 47 156 181 514 48 127 97 231 109
231 9 0 -10 -81 -36 -154 -19 -52 -29 -99 -29 -135 0 -33 4 -51 8 -43 11 16
32 -125 35 -225 2 -86 4 -85 77 42 29 50 75 119 104 155 70 86 156 216 156
233 0 8 16 31 36 53 l36 38 -6 -104 c-4 -58 -13 -134 -21 -170 -7 -36 -19
-101 -25 -145 -13 -86 -133 -406 -138 -369 -2 12 20 91 47 176 56 175 93 369
83 438 l-7 45 -29 -49 c-20 -34 -35 -82 -48 -155 -54 -294 -84 -425 -119 -521
-67 -179 -80 -158 -24 41 27 96 105 457 105 487 0 8 -77 -103 -146 -213 -35
-55 -77 -115 -92 -134 l-29 -34 -7 194 c-4 107 -11 212 -15 234 l-7 40 -13
-45 c-22 -76 -83 -241 -119 -320 -43 -94 -78 -193 -87 -245 -11 -62 -20 -31
-70 236 -24 134 -57 303 -72 374 -24 114 -28 126 -34 95 -21 -98 -30 -252 -39
-632 -7 -269 -14 -427 -22 -445 -11 -28 -11 -27 -20 22 -8 48 -3 524 8 710 8
136 34 335 51 383 12 35 13 116 4 171 -1 2 -10 -4 -20 -13 -27 -24 -37 -15
-51 44 -13 55 -30 67 -30 21 0 -16 -7 -48 -15 -71 -8 -24 -18 -74 -22 -112 -7
-77 -14 -73 -32 17 -11 59 -50 172 -51 148 -1 -27 22 -170 31 -198 17 -48 28
-143 22 -180 -6 -39 -23 -48 -23 -13 0 12 -9 58 -19 103 -11 44 -30 124 -42
179 -25 112 -31 111 -56 -14 l-16 -81 -12 34 c-10 29 -74 137 -81 137 -10 0
48 -152 106 -280 67 -146 103 -260 124 -385 19 -107 26 -128 26 -74 0 19 9 99
19 179 11 80 27 206 36 280 9 74 20 155 24 180 l8 45 12 -30 c7 -18 10 -49 6
-80 -17 -143 -49 -357 -72 -490 -15 -82 -29 -172 -33 -200 l-6 -50 -13 30 c-7
17 -24 77 -38 135 -41 171 -132 464 -150 480 -3 3 -3 -24 1 -60 4 -42 3 -60
-3 -50 -5 9 -12 47 -14 85 -9 116 -25 136 -21 25 3 -92 3 -94 -11 -55 -8 23
-14 80 -14 135 0 52 -5 109 -10 125 -7 23 -8 15 -4 -32 l6 -63 -32 16 c-43 21
-56 8 -37 -37 8 -19 18 -64 22 -99 l7 -65 -26 24 c-15 13 -36 52 -47 87 -27
81 -40 89 -40 25 0 -28 -2 -51 -4 -51 -2 0 -20 7 -39 15 -20 8 -39 15 -41 15
-3 0 26 -61 65 -136 39 -75 93 -191 121 -258 56 -133 131 -347 124 -353 -8 -8
-64 103 -120 235 -31 74 -78 177 -105 230 -26 53 -67 145 -91 205 -38 96 -55
126 -65 116 -3 -4 18 -174 31 -253 8 -52 -12 -39 -27 17 -12 47 -78 219 -86
227 -3 3 -3 -9 0 -26 3 -17 3 -43 -1 -57 l-7 -26 -45 30 -45 31 -3 -29 c-7
-76 -12 -92 -33 -90 -11 1 -29 16 -41 35 -32 52 -31 32 2 -41 16 -37 30 -74
30 -83 0 -25 96 -218 162 -327 33 -54 58 -100 55 -103 -10 -10 -147 193 -182
272 -20 43 -44 94 -53 113 -18 38 -74 101 -88 101 -5 0 -10 -21 -12 -47 -3
-58 -11 -67 -47 -53 -15 6 -45 14 -67 19 l-39 9 62 -59 c35 -32 70 -60 78 -61
21 -4 26 -35 6 -35 -8 0 -15 5 -15 10 0 6 -2 8 -5 5 -3 -3 5 -30 18 -59 32
-74 60 -159 54 -166 -11 -11 -60 83 -93 180 -25 71 -43 109 -62 124 -36 30
-39 29 -34 -9 5 -30 3 -32 -12 -19 -10 8 -16 9 -16 2 0 -7 -8 -8 -26 -1 -47
18 -60 10 -21 -14 45 -28 87 -66 87 -79 0 -5 -15 -7 -35 -4 l-34 6 33 -48 c19
-26 65 -113 103 -192 67 -139 190 -349 205 -349 3 0 -14 44 -39 98 -25 53 -61
138 -80 187 -18 50 -54 125 -79 168 -25 44 -44 81 -41 83 6 6 60 -65 85 -111
12 -22 44 -89 72 -148 54 -118 121 -225 169 -271 17 -17 31 -27 31 -23 0 11
-106 221 -156 309 -49 87 -53 100 -23 72 31 -27 106 -141 178 -269 61 -108 91
-150 91 -128 0 16 -25 74 -90 213 -33 69 -62 141 -66 160 -5 32 -3 30 36 -30
24 -36 81 -130 127 -210 96 -164 101 -170 118 -170 9 0 1 26 -24 78 -21 42
-55 122 -77 177 -36 92 -45 107 -125 190 -87 91 -179 223 -205 298 -25 72 -15
63 34 -25 44 -82 115 -175 223 -293 28 -30 70 -96 104 -165 92 -184 143 -266
211 -340 35 -39 64 -69 64 -67 0 1 -36 68 -80 147 -44 80 -80 148 -80 153 0
14 15 6 33 -18 52 -72 157 -228 191 -282 20 -35 41 -63 45 -63 4 0 16 -18 26
-40 10 -23 23 -44 28 -47 14 -8 3 34 -39 149 -48 130 -40 158 13 48 23 -47 50
-110 60 -141 l18 -56 89 -7 c109 -7 274 -8 302 0 17 4 25 25 48 127 38 166
139 513 176 600 34 83 85 168 75 127 -3 -14 -24 -79 -45 -145 -84 -258 -150
-479 -150 -504 0 -14 -9 -60 -20 -100 -12 -40 -19 -78 -17 -84 8 -26 82 91
132 210 30 72 55 136 55 142 0 6 6 11 14 11 15 0 9 -32 -38 -199 -15 -51 -25
-95 -23 -97 2 -2 19 20 38 49 20 29 65 95 102 148 77 111 180 313 262 514 31
77 70 169 86 205 34 74 162 267 167 251 2 -5 -15 -36 -37 -68 -23 -32 -52 -87
-65 -123 -13 -36 -38 -96 -55 -135 -16 -38 -42 -101 -57 -140 -14 -38 -50
-117 -79 -175 -29 -58 -76 -161 -104 -230 -29 -69 -59 -140 -67 -159 -8 -18
-13 -35 -11 -37 6 -7 89 102 135 176 23 38 65 114 94 167 28 54 64 119 80 145
16 26 34 60 39 75 8 25 8 23 5 -13 -2 -23 -40 -127 -85 -230 -74 -174 -93
-234 -52 -175 9 14 24 34 34 45 l19 21 -6 -23 c-2 -13 -3 -22 -1 -20 2 1 25
30 52 64 72 91 175 214 180 214 18 0 -48 -127 -131 -252 -10 -16 -14 -28 -8
-28 22 0 66 47 121 129 62 92 111 145 111 120 0 -8 -29 -69 -64 -136 l-63
-122 57 39 c32 21 85 72 118 112 33 40 84 102 114 137 29 35 64 78 77 97 13
19 26 32 29 30 8 -8 -106 -204 -169 -293 -33 -45 -59 -84 -59 -88 0 -10 43 16
91 57 53 43 136 161 229 323 124 217 138 240 165 265 l27 25 -34 -75 c-65
-142 -259 -485 -317 -559 -38 -49 -44 -61 -31 -61 18 0 92 82 188 207 89 117
138 171 147 162 5 -5 -101 -172 -202 -320 -35 -50 -63 -96 -63 -102 1 -18 102
94 183 203 40 52 107 133 149 178 43 46 120 136 173 200 52 65 127 153 165
196 39 43 70 83 70 87 0 16 -28 10 -76 -16 -26 -14 -57 -25 -69 -25 l-23 0 24
58 c13 31 24 72 24 90 l0 34 -52 -58 c-29 -31 -72 -83 -96 -116 -23 -32 -47
-58 -52 -58 -15 0 -12 16 5 30 9 7 26 34 38 59 13 25 42 82 66 126 l43 80 -34
-39 c-23 -27 -37 -36 -42 -28 -4 7 10 32 36 62 24 27 51 64 61 82 15 28 13 27
-20 -12 -64 -75 -133 -143 -139 -137 -3 3 6 22 21 41 20 26 23 36 13 36 -29 0
-104 -64 -256 -217 -85 -85 -156 -152 -160 -149 -3 4 17 30 44 59 76 79 164
182 239 282 37 50 72 96 78 103 17 21 1 13 -44 -23 -46 -36 -67 -44 -66 -22 1
32 -4 48 -13 42 -5 -3 -10 -17 -10 -30 0 -18 -29 -49 -116 -126 -128 -112
-149 -140 -198 -255 -18 -43 -52 -119 -75 -168 -22 -49 -41 -91 -41 -93 0 -2
36 34 80 80 44 46 127 122 186 168 104 82 329 229 349 229 16 -1 -95 -99 -135
-120 -63 -32 -339 -255 -499 -403 -34 -32 -65 -56 -68 -53 -3 3 9 32 26 65 17
33 39 82 50 108 10 27 56 126 100 220 45 94 81 177 81 184 1 8 7 28 15 44 14
30 14 30 8 -14 l-6 -44 44 34 c104 80 169 142 169 160 0 16 -13 11 -80 -32
-44 -28 -80 -57 -80 -64 0 -8 -4 -17 -10 -20 -5 -3 -10 3 -10 15 0 13 22 42
55 74 30 29 55 55 55 59 0 3 -19 -3 -42 -13 -64 -29 -74 -26 -49 16 27 45 27
52 0 28 l-22 -19 6 75 6 75 -23 -70 c-18 -57 -27 -72 -49 -79 -15 -6 -29 -7
-32 -4 -3 3 -8 29 -12 57 -3 29 -9 48 -13 44 -19 -22 -71 -167 -85 -233 -13
-67 -72 -206 -83 -195 -2 2 5 34 17 72 28 93 60 243 52 243 -4 0 -14 -12 -23
-27 -9 -16 -33 -48 -54 -72 -53 -62 -97 -138 -129 -223 -15 -40 -33 -82 -39
-93 -7 -11 -34 -74 -60 -140 -44 -110 -77 -167 -91 -154 -12 13 56 170 201
465 24 49 70 121 102 159 31 37 75 92 97 121 22 29 50 67 63 84 13 16 19 30
14 30 -12 0 -72 -67 -72 -80 0 -6 -4 -10 -10 -10 -5 0 -10 12 -10 28 0 47 -17
58 -23 14 -4 -21 -16 -47 -27 -57 -20 -18 -20 -18 -20 12 0 16 4 43 9 59 30
96 19 111 -22 32 -16 -29 -37 -69 -47 -88 -11 -19 -34 -73 -52 -120 -35 -89
-135 -265 -168 -295 -19 -17 -19 -17 -10 14 4 17 31 77 58 133 28 57 75 155
105 218 31 63 70 140 88 170 29 50 30 53 8 34 -51 -45 -89 -53 -89 -18 0 9
-20 -22 -44 -67 -24 -46 -48 -85 -54 -87 -18 -6 -20 37 -3 67 50 90 71 131 71
138 -1 4 -12 -14 -27 -42 -45 -89 -73 -105 -73 -42 0 18 -3 49 -7 70 l-6 38
-18 -28 c-19 -28 -64 -157 -72 -203 -3 -20 -5 -19 -6 8 0 18 4 63 10 100 10
64 9 70 -20 144 -17 42 -31 81 -31 87 0 18 -20 23 -20 4z m-110 -98 c0 -26
-49 -159 -56 -152 -5 4 21 131 31 160 10 25 25 21 25 -8z m116 -61 c-13 -109
-152 -497 -163 -453 -6 24 150 509 164 509 3 0 3 -25 -1 -56z m-476 -50 c7
-18 6 -50 -5 -107 -34 -191 -55 -350 -56 -433 -1 -49 -4 -100 -8 -114 l-7 -25
-8 30 c-13 52 -8 306 8 385 8 41 20 107 26 145 11 70 30 145 37 145 2 0 8 -12
13 -26z m60 -217 c-14 -81 -39 -157 -51 -157 -6 0 -8 8 -5 18 2 9 7 44 11 77
3 33 11 89 17 125 l11 65 14 -33 c11 -26 11 -46 3 -95z m-800 18 c0 -10 -16
-4 -40 16 l-25 20 33 -16 c17 -8 32 -18 32 -20z m1900 -40 c-14 -17 -40 -20
-40 -5 0 6 8 22 17 37 17 25 17 25 26 5 7 -15 6 -26 -3 -37z m-314 18 c-8 -16
-22 -37 -31 -48 -16 -20 -16 -19 -9 5 5 22 41 70 51 70 2 0 -3 -12 -11 -27z
m277 -70 c-15 -42 -155 -250 -234 -350 -32 -40 -74 -97 -93 -126 -20 -30 -45
-62 -57 -73 -65 -58 209 358 332 505 54 65 62 72 52 44z m-2175 -198 c67 -64
125 -145 104 -145 -5 0 -48 40 -96 90 -47 49 -86 86 -86 81 0 -4 21 -34 48
-67 79 -99 121 -168 156 -262 44 -114 88 -254 82 -259 -9 -10 -37 46 -85 174
-42 111 -153 333 -166 333 -3 0 12 -35 32 -77 38 -83 137 -382 129 -391 -9 -9
-34 18 -51 55 -10 20 -32 93 -50 162 -39 149 -74 254 -109 334 -43 96 -37 95
92 -28z m347 2 c8 -29 35 -137 60 -242 25 -104 58 -239 73 -298 23 -93 25
-109 12 -117 -10 -6 -17 -5 -22 4 -19 35 -158 636 -158 685 0 45 16 30 35 -32z
m-601 -40 c40 -56 83 -139 58 -112 -20 21 -112 159 -112 167 0 17 10 7 54 -55z
m1070 31 c7 -40 22 -246 37 -501 11 -191 5 -367 -12 -350 -11 11 -24 192 -39
538 -6 138 -13 260 -15 273 -6 26 4 72 16 72 4 0 10 -15 13 -32z m1101 -66
c-15 -16 -16 -15 -4 12 7 15 15 23 17 16 3 -7 -3 -19 -13 -28z m-545 -129
c-16 -65 -39 -164 -49 -219 -24 -126 -47 -205 -67 -230 -14 -18 -14 -16 -10
21 3 22 13 78 21 125 9 47 20 110 25 140 13 84 94 299 107 286 2 -2 -10 -57
-27 -123z m680 93 c0 -13 -192 -283 -263 -368 -46 -57 -68 -63 -36 -10 55 89
283 392 296 392 2 0 3 -6 3 -14z m590 -5 c0 -5 -7 -15 -17 -22 -9 -8 -47 -49
-85 -92 -64 -73 -82 -84 -57 -34 13 26 140 157 151 157 5 0 8 -4 8 -9z m-1510
-52 c-5 -19 -16 -83 -25 -144 -32 -221 -64 -333 -65 -228 0 121 42 336 78 391
19 30 24 24 12 -19z m-944 -90 c117 -162 266 -461 223 -447 -13 4 -44 58 -183
313 -41 77 -88 160 -102 184 -45 74 -4 41 62 -50z m-496 36 c0 -5 -5 -3 -10 5
-5 8 -10 20 -10 25 0 6 5 3 10 -5 5 -8 10 -19 10 -25z m444 -601 c3 -8 2 -12
-4 -9 -6 3 -10 10 -10 16 0 14 7 11 14 -7z"/>
<path d="M5893 9413 c-52 -54 -126 -134 -163 -178 -37 -44 -100 -116 -141
-161 -41 -44 -113 -139 -160 -210 -48 -71 -110 -162 -138 -201 -33 -47 -46
-73 -37 -73 22 0 70 44 160 149 187 216 262 273 417 312 71 19 103 21 228 16
158 -5 218 -18 281 -62 52 -36 73 -84 78 -177 8 -164 -32 -346 -113 -515 -105
-217 -248 -318 -386 -272 -33 11 -99 65 -99 81 0 4 29 22 64 38 131 62 221
181 247 325 26 144 -35 284 -146 336 -84 39 -241 18 -354 -48 -60 -35 -298
-267 -278 -271 20 -4 158 66 240 122 37 25 67 42 67 38 0 -28 -253 -272 -282
-272 -5 0 -8 -5 -8 -11 0 -28 155 33 273 108 21 13 41 22 44 19 16 -16 -97
-125 -191 -185 -90 -56 8 -47 158 16 32 13 61 22 64 19 11 -11 -44 -59 -126
-109 -46 -28 -85 -54 -88 -58 -8 -14 79 -21 176 -14 69 5 100 4 105 -4 12 -20
-14 -39 -88 -66 -109 -40 -141 -55 -131 -64 11 -10 240 -81 263 -81 29 -1 -8
-16 -84 -34 -38 -10 -81 -23 -94 -30 -23 -13 -23 -14 25 -24 27 -6 110 -16
184 -22 214 -17 656 -89 600 -98 -13 -2 -117 4 -230 13 -211 18 -358 16 -418
-6 -65 -23 -16 -31 210 -36 213 -4 314 -10 306 -18 -2 -3 -58 -9 -124 -15
-118 -11 -188 -21 -294 -42 -50 -10 -53 -11 -30 -20 14 -5 126 -10 250 -10
349 0 440 -9 530 -48 255 -111 332 -161 501 -330 77 -77 131 -150 109 -150 -4
0 -41 36 -81 81 -93 104 -325 292 -375 304 -11 3 -66 21 -123 41 -121 42 -232
55 -354 43 -103 -10 -329 -50 -341 -60 -4 -4 18 -13 50 -19 83 -17 352 -105
462 -152 52 -21 117 -42 145 -45 50 -6 51 -5 37 12 -8 10 -76 59 -150 108
-105 70 -127 88 -101 83 19 -3 56 -20 83 -37 69 -45 198 -146 193 -151 -3 -3
6 -15 20 -28 14 -13 25 -31 25 -40 0 -9 6 -22 13 -29 6 -7 -4 -4 -23 7 -19 12
-66 29 -105 38 -38 10 -123 37 -188 61 -155 57 -264 78 -352 68 -41 -4 -64
-10 -58 -16 5 -5 106 -41 224 -80 365 -121 532 -189 640 -264 27 -18 54 -35
61 -38 7 -2 11 -7 8 -9 -8 -8 -122 32 -134 46 -26 31 -326 147 -443 171 -87
18 -260 23 -287 8 -15 -8 -9 -13 31 -27 96 -36 382 -201 369 -213 -2 -2 -29 8
-61 22 -102 45 -285 75 -285 47 0 -13 211 -100 298 -123 82 -22 182 -60 182
-70 0 -3 -33 0 -74 7 -41 7 -130 16 -198 19 -68 4 -141 11 -163 15 -22 5 -41
7 -44 4 -5 -5 222 -113 299 -142 89 -33 198 -90 279 -147 42 -29 92 -60 111
-70 50 -25 170 -107 170 -116 0 -10 -99 47 -210 122 -168 113 -293 157 -630
225 -47 9 -91 19 -97 21 -7 3 -13 1 -13 -5 0 -6 46 -34 103 -62 56 -29 135
-73 175 -97 40 -24 116 -67 170 -95 130 -69 280 -168 334 -220 23 -24 60 -56
81 -72 48 -35 124 -132 149 -188 10 -24 31 -53 45 -65 15 -12 24 -26 19 -30
-10 -10 -52 41 -72 86 -15 36 -113 159 -128 160 -4 1 -31 22 -60 47 -107 97
-345 253 -418 275 -80 24 -461 89 -470 80 -4 -3 59 -30 140 -58 346 -121 381
-136 700 -290 70 -34 107 -62 66 -51 -41 12 -244 88 -334 126 -236 97 -694
185 -948 181 l-47 0 50 -14 c28 -7 122 -27 210 -45 213 -42 526 -121 650 -164
97 -34 218 -83 360 -148 85 -39 233 -135 246 -160 5 -10 44 -44 87 -76 127
-94 246 -192 266 -219 10 -13 -37 20 -105 75 -68 55 -125 98 -127 97 -2 -1 24
-47 58 -101 39 -64 93 -133 153 -194 125 -129 158 -170 206 -255 24 -42 20
-38 -44 41 -110 137 -236 256 -350 329 -97 63 -280 168 -355 206 -57 28 -280
102 -287 95 -2 -2 65 -44 149 -94 291 -171 282 -164 557 -435 199 -198 319
-335 409 -469 68 -100 136 -238 119 -238 -3 0 -23 30 -45 68 -69 116 -127 187
-226 275 -67 60 -113 92 -151 106 -59 22 -130 57 -248 121 -126 67 -115 53 92
-125 92 -78 302 -296 372 -385 53 -66 141 -200 132 -199 -4 0 -53 52 -108 115
-140 160 -286 300 -379 362 -43 29 -81 50 -84 48 -6 -7 27 -50 150 -199 54
-64 129 -163 166 -220 77 -115 167 -275 159 -283 -3 -3 -40 46 -82 109 -90
136 -184 230 -364 365 -184 139 -176 120 47 -119 130 -139 290 -328 374 -442
72 -98 123 -161 164 -207 23 -25 48 -58 57 -75 13 -25 17 -27 22 -12 15 38
-16 141 -65 213 -53 75 -30 81 50 11 58 -50 65 -31 20 54 -17 34 -30 63 -27
65 8 8 72 -48 108 -97 22 -28 39 -48 39 -44 0 34 -40 149 -82 237 -28 59 -49
111 -45 114 8 9 53 -27 68 -53 16 -30 29 -29 29 1 0 29 -62 210 -91 266 -12
23 -19 44 -16 47 9 9 64 -17 129 -60 33 -22 62 -37 65 -34 3 4 -14 37 -37 74
-87 137 -110 177 -110 194 0 13 9 8 34 -17 19 -19 44 -34 57 -34 13 0 35 -3
49 -6 21 -6 18 1 -26 47 -51 53 -121 143 -158 201 -19 30 -19 30 0 20 10 -6
44 -36 73 -66 52 -52 56 -55 73 -39 25 22 23 42 -7 65 -22 17 -95 134 -95 151
0 14 19 6 49 -19 17 -14 31 -23 31 -20 0 11 -24 56 -30 56 -11 0 -173 181
-167 186 9 9 49 -16 95 -58 24 -22 46 -37 49 -34 4 3 -1 23 -10 43 -9 21 -21
58 -28 83 -6 25 -20 55 -31 66 -25 28 -10 38 39 25 20 -6 38 -9 40 -7 2 1 -20
17 -47 35 -50 33 -63 51 -35 51 9 0 -12 29 -50 67 -94 98 -88 111 19 37 37
-25 72 -44 78 -42 6 2 -18 30 -52 61 -35 31 -58 57 -51 57 6 0 35 -21 63 -47
83 -78 38 -11 -66 97 -103 107 -175 190 -258 300 -190 250 -381 430 -608 575
-121 77 -151 98 -146 103 9 9 190 -100 285 -171 116 -88 255 -219 334 -317 34
-41 91 -109 127 -150 37 -41 101 -117 144 -168 42 -52 89 -105 104 -119 15
-14 18 -20 7 -12 -17 11 -18 11 -8 -1 7 -7 27 -15 44 -17 18 -2 38 -8 46 -14
36 -30 6 19 -66 108 -64 79 -76 99 -63 104 9 3 23 4 30 2 7 -3 12 3 12 16 0
17 -13 28 -52 45 -29 13 -64 35 -77 50 l-24 26 69 -20 c39 -10 82 -24 98 -29
64 -25 55 -7 -17 32 -79 42 -197 133 -197 150 0 5 11 7 25 3 14 -3 36 -9 50
-12 51 -13 25 24 -42 62 -78 42 -148 96 -164 125 -10 19 -9 19 26 5 20 -9 62
-35 93 -60 31 -24 76 -53 99 -65 43 -22 123 -29 123 -11 0 5 -23 21 -51 36
-28 14 -87 50 -131 79 -44 30 -85 56 -91 58 -7 2 -9 8 -5 12 4 4 28 0 54 -9
26 -9 50 -14 52 -11 11 11 -44 56 -82 67 l-41 13 37 3 c36 3 78 32 46 32 -8 0
-22 6 -31 13 -15 10 -9 11 33 9 70 -5 62 12 -15 31 -53 13 -80 28 -157 90
-114 90 -148 113 -148 98 0 -18 -17 -13 -22 7 -3 10 -54 42 -124 78 -88 46
-145 67 -219 84 -55 12 -108 27 -119 32 -18 10 -18 9 0 -22 19 -32 135 -135
250 -223 101 -76 167 -141 255 -249 l83 -103 -120 115 c-65 64 -189 177 -274
251 -179 157 -181 159 -211 219 -12 25 -29 53 -38 64 -15 18 -15 18 14 4 17
-9 71 -26 120 -38 118 -29 200 -62 310 -123 148 -83 166 -94 258 -165 57 -45
106 -74 143 -86 87 -28 86 -10 -4 56 -60 44 -142 126 -142 143 0 9 91 5 111
-5 13 -8 19 -7 19 0 0 15 -138 145 -194 182 -50 33 -60 56 -22 50 12 -2 68
-19 125 -38 58 -19 106 -32 108 -31 2 2 -5 11 -14 19 -22 19 -225 146 -247
154 -26 10 -18 21 19 28 34 7 50 26 21 26 -8 0 -36 17 -63 37 -26 20 -64 45
-83 55 l-35 17 58 1 c32 0 56 4 53 9 -3 5 -36 16 -73 25 -38 10 -79 26 -93 37
l-25 20 40 -2 c22 0 54 0 70 1 l30 1 -35 15 c-19 8 -75 35 -125 60 l-90 45 56
-5 c34 -3 76 -15 107 -31 30 -15 62 -25 79 -23 26 3 23 6 -37 40 -57 32 -151
64 -244 83 -41 9 -23 19 42 25 31 3 57 10 57 15 0 6 -43 32 -95 58 -52 26 -97
51 -100 54 -11 13 95 -10 177 -38 118 -40 160 -38 76 3 -59 28 -79 48 -51 48
30 0 -36 30 -147 66 -141 46 -123 57 43 25 61 -12 111 -17 124 -12 17 6 9 11
-43 24 -35 10 -107 24 -159 32 -97 16 -247 59 -265 77 -7 7 -3 8 10 4 91 -26
357 -86 385 -85 28 0 22 4 -35 19 -92 25 -223 68 -210 69 6 1 55 -10 110 -23
55 -14 101 -23 103 -21 11 11 -71 49 -135 62 -43 8 -89 22 -103 30 -23 13 -19
14 48 9 50 -3 88 0 125 11 l52 17 -46 7 c-26 4 -56 12 -67 18 -11 6 -49 11
-84 11 -69 0 -103 12 -71 24 10 4 65 10 123 13 136 8 100 22 -83 33 -71 4
-133 12 -139 18 -23 23 4 28 88 15 48 -8 94 -13 102 -11 24 5 -76 54 -150 73
-37 10 -65 21 -63 25 2 4 48 10 102 13 107 7 146 15 137 28 -7 12 -78 11 -129
-1 -49 -11 -57 -4 -26 22 l25 19 -25 -5 c-188 -44 -179 -44 -179 -6 0 26 4 30
27 30 48 0 151 22 170 35 16 12 12 14 -32 9 -64 -6 -111 7 -108 30 1 13 -5 17
-20 14 -21 -4 -22 -1 -22 101 0 124 -12 164 -62 215 -40 40 -161 103 -208 108
l-30 4 25 11 c14 6 43 18 65 27 l40 16 -69 -7 c-65 -6 -69 -5 -61 13 4 10 14
39 21 63 12 36 12 42 0 38 -8 -3 -22 3 -33 12 -18 18 -20 18 -42 0 -29 -24
-44 -24 -65 -1 -15 18 -15 21 4 45 11 14 20 30 20 35 0 21 -34 21 -67 1 -19
-12 -49 -23 -66 -25 -17 -2 -39 -11 -49 -21 -41 -37 -24 -2 27 57 48 56 67 90
50 90 -3 0 -49 -44 -102 -97z m161 -95 c8 -32 7 -38 -5 -38 -6 0 -23 -9 -37
-20 -22 -18 -27 -19 -34 -6 -11 19 4 49 34 70 30 21 35 20 42 -6z m116 -74 c0
-32 -54 -64 -132 -78 -58 -11 -45 6 35 46 69 35 97 45 97 32z m-303 -64 c-30
-24 -85 -45 -94 -37 -5 6 91 54 111 56 5 1 -3 -8 -17 -19z m651 -682 c19 -19
14 -28 -13 -28 -14 0 -25 2 -25 4 0 2 -3 11 -6 20 -7 19 26 22 44 4z m47 -151
c38 -18 62 -33 54 -35 -24 -4 -172 51 -177 67 -6 19 34 9 123 -32z m92 -93
c-3 -3 -12 -4 -19 -1 -8 3 -5 6 6 6 11 1 17 -2 13 -5z m-147 -76 c90 -29 250
-110 280 -143 24 -27 24 -27 -47 9 -100 50 -209 92 -301 117 -85 23 -87 23
-78 38 8 13 64 5 146 -21z m10 -130 c124 -40 307 -113 324 -128 4 -5 5 -13 2
-19 -4 -6 -37 3 -89 26 -104 45 -389 143 -416 143 -23 0 -28 16 -8 23 18 7 48
0 187 -45z m15 -131 c105 -42 233 -98 286 -127 91 -47 190 -122 179 -133 -3
-3 -68 29 -145 70 -77 42 -184 96 -237 119 -110 50 -321 124 -349 124 -21 0
-26 15 -6 24 28 13 93 -6 272 -77z m-233 -21 c47 -14 131 -45 189 -69 57 -24
122 -50 144 -57 22 -7 44 -16 49 -21 15 -14 -64 2 -134 26 -268 93 -360 129
-348 136 7 5 14 9 14 9 1 0 40 -11 86 -24z m478 -282 c41 -19 80 -44 88 -55 7
-11 61 -51 120 -90 116 -78 246 -175 305 -227 46 -42 141 -162 128 -162 -5 0
-49 37 -98 82 -177 164 -377 323 -394 313 -4 -3 -31 17 -61 44 -29 27 -84 66
-121 86 -37 20 -67 39 -67 41 0 11 32 1 100 -32z m271 -32 c35 -22 101 -64
147 -92 46 -28 82 -53 80 -55 -7 -7 -76 21 -95 37 -33 28 -177 108 -225 124
-26 8 -48 20 -48 25 0 21 80 -1 141 -39z m-411 -100 c0 -4 -17 -6 -37 -4 -59
5 -63 10 -10 11 26 1 47 -3 47 -7z m-282 -43 c23 -7 40 -14 38 -16 -5 -5 -116
27 -116 33 0 3 8 3 18 0 9 -2 36 -10 60 -17z m137 -39 c13 -5 14 -9 5 -9 -8 0
-24 4 -35 9 -13 5 -14 9 -5 9 8 0 24 -4 35 -9z m473 -90 c46 -28 40 -34 -10
-9 -51 26 -56 29 -37 29 8 0 29 -9 47 -20z m-394 -278 c27 -20 52 -44 54 -52
3 -8 -15 2 -41 23 -25 20 -50 37 -56 37 -19 0 -121 71 -121 84 0 11 110 -50
164 -92z m537 -28 c17 -8 29 -18 26 -20 -5 -6 -107 43 -107 51 0 6 40 -10 81
-31z m-438 -106 c12 -6 31 -12 42 -14 34 -3 112 -46 275 -149 180 -114 271
-181 355 -260 66 -61 69 -63 -80 40 -108 75 -156 107 -323 210 -95 59 -175
105 -178 102 -3 -3 89 -99 204 -214 207 -206 313 -331 424 -503 63 -97 172
-299 166 -306 -6 -5 -16 11 -143 206 -148 227 -255 369 -374 492 -62 65 -119
118 -125 118 -7 0 -54 48 -105 108 -50 59 -107 118 -126 132 -50 37 -58 63
-12 38z m729 -103 c6 -12 -4 -6 -26 14 -20 19 -36 39 -36 45 0 13 49 -34 62
-59z m-2 -136 c0 -7 -24 13 -52 46 -81 89 -88 108 -14 34 36 -37 66 -73 66
-80z m17 16 c14 -22 37 -53 52 -70 16 -18 9 -14 -17 10 -23 21 -42 44 -42 50
0 6 -17 31 -37 56 -28 33 -30 38 -9 19 16 -14 40 -43 53 -65z m-720 10 c48
-25 124 -72 168 -105 82 -61 248 -220 239 -229 -2 -3 -37 27 -77 65 -103 101
-253 209 -391 283 -32 17 -52 31 -43 31 9 0 55 -20 104 -45z m717 -61 c9 -24
2 -26 -12 -4 -7 11 -8 20 -3 20 5 0 12 -7 15 -16z m-95 -308 c32 -17 132 -127
181 -201 18 -27 64 -91 102 -142 61 -82 81 -123 60 -123 -4 0 -51 65 -105 144
-55 81 -138 187 -188 240 -50 53 -88 96 -84 96 3 0 19 -7 34 -14z m-240 -75
c94 -48 215 -146 264 -216 18 -26 15 -24 -24 11 -47 42 -149 114 -256 178
-102 61 -90 80 16 27z m197 -268 c78 -46 150 -93 160 -105 21 -23 7 -16 -161
82 -44 26 -101 59 -127 73 -26 15 -50 32 -54 38 -14 23 44 -5 182 -88z m404
41 c0 -2 -9 -4 -20 -4 -11 0 -20 4 -20 9 0 5 9 7 20 4 11 -3 20 -7 20 -9z
m-146 -374 c104 -133 249 -377 281 -471 9 -25 24 -62 34 -83 17 -33 18 -76 2
-76 -8 0 -81 114 -81 126 1 5 14 -7 31 -26 26 -31 24 -23 -19 60 -151 296
-187 356 -287 479 -59 73 -85 111 -85 127 0 15 45 -35 124 -136z m148 -73 c47
-56 131 -193 127 -205 -5 -12 -132 135 -152 174 -41 81 -28 97 25 31z m166
-1212 c6 -14 9 -25 6 -25 -3 0 -19 11 -36 25 -29 25 -29 25 -5 25 16 0 28 -8
35 -25z"/>
<path d="M1930 9249 c-60 -24 -95 -77 -105 -160 -8 -68 10 -326 31 -429 37
-177 134 -407 228 -538 21 -29 37 -54 35 -56 -2 -2 -19 -11 -36 -20 -36 -18
-44 -30 -15 -23 69 19 69 19 101 -28 17 -26 31 -48 31 -51 0 -10 -60 -3 -72 9
-14 13 -89 39 -96 32 -2 -2 6 -8 17 -14 23 -13 56 -69 46 -79 -4 -4 -39 -9
-78 -12 -52 -4 -67 -8 -52 -14 11 -5 27 -15 35 -22 12 -10 68 -14 216 -16 225
-3 237 0 272 70 25 48 29 70 37 167 3 44 8 98 11 120 4 34 -1 49 -26 87 -17
26 -47 61 -67 78 -58 51 -33 43 62 -20 50 -33 92 -55 93 -50 5 13 -65 90 -156
174 -54 50 -67 66 -52 66 26 0 83 -29 167 -85 37 -25 71 -45 76 -45 13 0 -56
76 -130 141 -35 31 -73 69 -85 84 l-21 27 24 -7 c24 -8 190 -94 244 -127 33
-20 55 -23 55 -9 0 19 -123 193 -177 251 -73 80 -189 157 -248 166 -57 8 -126
-16 -150 -52 -47 -72 -42 -205 13 -366 60 -173 128 -271 233 -339 27 -17 49
-34 49 -38 0 -3 -16 -17 -35 -30 -110 -75 -258 26 -372 254 -110 219 -182 651
-126 747 72 124 328 94 520 -61 33 -27 96 -98 148 -167 109 -146 195 -249 195
-235 0 5 -4 12 -10 16 -5 3 -7 11 -4 19 3 7 -14 44 -37 82 -45 73 -153 295
-184 378 -11 27 -21 44 -23 38 -2 -7 -40 2 -105 24 -159 55 -251 74 -357 73
-52 0 -106 -5 -120 -10z m645 -596 c48 -52 44 -66 -5 -18 -36 35 -49 55 -35
55 3 0 20 -17 40 -37z m-322 -780 c-7 -2 -19 -2 -25 0 -7 3 -2 5 12 5 14 0 19
-2 13 -5z"/>
<path d="M750 8520 c-15 -37 -37 -50 -82 -50 l-33 0 39 -33 c41 -35 41 -38 19
-111 -5 -18 -4 -18 18 -2 32 22 65 20 102 -6 l30 -22 -7 25 c-20 72 -19 75 18
105 20 16 36 32 36 37 0 4 -17 7 -39 7 -42 0 -56 11 -66 53 -9 35 -20 34 -35
-3z"/>
<path d="M7684 8185 c-18 -37 -22 -40 -67 -43 -26 -2 -47 -6 -47 -9 0 -3 17
-20 37 -38 36 -31 37 -33 25 -71 -6 -21 -10 -40 -8 -42 2 -2 18 4 36 13 29 15
33 15 66 -6 39 -24 51 -21 35 9 -20 37 -12 64 27 98 36 32 36 33 12 34 -53 1
-69 11 -83 54 l-14 41 -19 -40z"/>
<path d="M2000 7940 c0 -6 7 -10 15 -10 8 0 15 2 15 4 0 2 -7 6 -15 10 -8 3
-15 1 -15 -4z"/>
<path d="M2764 7820 c-36 -14 -91 -88 -109 -147 -37 -116 -36 -270 1 -334 61
-103 184 -95 284 18 41 47 42 49 35 103 -3 30 -10 91 -15 135 -19 163 -105
262 -196 225z m32 -125 c33 -50 -3 -170 -49 -163 -48 7 -60 120 -16 166 26 29
45 28 65 -3z"/>
<path d="M4804 7821 c-107 -27 -182 -112 -264 -303 -37 -85 -35 -95 23 -124
16 -9 57 -36 91 -61 108 -80 151 -97 236 -98 65 0 82 4 123 28 149 88 171 311
47 466 -58 71 -173 113 -256 92z m126 -141 c38 -38 17 -130 -28 -130 -30 0
-52 32 -52 76 0 67 40 94 80 54z"/>
<path d="M1905 7782 c-17 -8 -16 -9 10 -15 17 -4 39 -14 50 -22 17 -13 17 -17
5 -30 -8 -8 -33 -21 -55 -29 l-40 -15 35 -1 c35 -1 35 -1 -25 -31 -66 -32 -72
-31 77 -8 110 17 135 6 32 -14 -115 -24 -217 -67 -198 -85 18 -17 46 -15 138
8 43 11 104 19 135 19 l56 -1 -50 -8 c-63 -9 -143 -33 -185 -55 -30 -15 -32
-15 -27 -1 8 20 2 19 -48 -5 l-40 -19 32 3 c39 4 34 -9 -8 -18 -17 -4 -33 -13
-36 -21 -9 -23 2 -26 33 -10 16 8 52 21 79 30 28 8 108 36 180 62 71 25 183
56 248 69 166 31 170 40 26 56 -52 6 -118 8 -146 5 -29 -3 -53 -2 -53 2 0 20
168 51 281 52 60 0 86 20 51 39 -61 32 -133 43 -332 47 -113 2 -214 0 -225 -4z"/>
<path d="M972 7587 c-20 -45 -23 -47 -61 -47 -55 0 -58 -13 -10 -44 27 -19 39
-32 35 -44 -2 -9 -8 -32 -11 -51 l-7 -34 35 21 c43 27 62 28 95 1 31 -24 37
-14 23 38 -11 36 -10 39 24 71 19 18 35 34 35 37 0 3 -23 5 -50 5 -46 0 -51 2
-60 28 -26 71 -25 70 -48 19z"/>
<path d="M2120 7498 c-107 -23 -270 -81 -286 -102 -13 -18 -34 -21 -34 -6 0
14 -18 3 -65 -38 -20 -18 -34 -36 -31 -39 3 -3 40 4 83 16 42 12 108 25 147
28 l71 5 -46 -25 c-25 -13 -96 -36 -159 -51 -204 -48 -245 -82 -89 -74 l104 6
-80 -22 c-44 -12 -102 -34 -130 -48 -49 -25 -93 -64 -83 -73 5 -6 118 -33 173
-41 37 -6 38 -8 15 -14 -14 -5 -52 -9 -85 -9 -38 -1 -67 -7 -80 -18 -20 -15
-20 -15 3 -10 39 9 15 -9 -30 -22 -72 -22 -98 -33 -98 -42 0 -19 25 -20 96 -4
42 9 78 14 82 10 12 -12 -84 -85 -143 -107 l-60 -23 40 -5 c39 -5 39 -6 11
-13 -45 -13 -27 -15 52 -8 48 5 71 3 68 -4 -2 -5 -8 -9 -14 -8 -6 2 -9 -3 -7
-10 6 -17 -60 -65 -109 -79 -23 -6 -43 -13 -46 -15 -11 -9 28 -23 65 -23 55 0
79 -16 39 -25 -47 -11 -96 -27 -92 -30 2 -2 23 1 46 7 24 6 46 8 49 4 3 -3
-12 -28 -35 -55 -27 -32 -37 -51 -29 -54 9 -3 8 -13 -6 -38 l-17 -34 25 30
c15 17 44 51 65 76 21 26 50 49 63 51 19 4 12 -7 -37 -54 l-61 -59 55 27 c30
15 72 38 93 51 22 13 41 22 44 20 2 -3 -22 -22 -54 -42 -105 -67 -154 -109
-198 -170 -47 -67 -108 -175 -102 -181 2 -3 44 31 93 74 115 100 151 126 159
111 4 -6 -57 -72 -146 -158 -146 -140 -153 -149 -136 -165 9 -10 17 -20 17
-22 0 -13 -50 -69 -84 -95 -54 -40 -28 -36 54 7 45 23 92 61 139 109 39 40 71
70 71 66 0 -8 -72 -97 -150 -182 l-64 -71 53 7 c49 7 52 6 43 -11 -6 -11 -25
-32 -42 -49 -36 -33 -90 -103 -90 -117 0 -4 3 -8 8 -8 15 0 222 208 267 269
64 87 125 151 215 225 222 184 411 275 601 290 132 10 304 17 298 12 -2 -3
-57 -16 -120 -30 -81 -17 -140 -36 -198 -66 -86 -43 -100 -57 -40 -40 93 27
262 4 359 -50 l35 -19 -66 6 c-76 7 -158 -14 -203 -50 l-30 -24 72 -7 c117
-12 218 -52 309 -125 54 -42 247 -250 240 -258 -3 -2 -45 -12 -93 -23 -109
-22 -160 -43 -199 -80 l-30 -29 -320 -3 -320 -3 -53 -30 c-65 -36 -93 -67
-139 -158 -43 -87 -75 -208 -102 -396 -34 -227 -37 -335 -12 -484 12 -70 21
-139 21 -153 0 -26 -1 -26 -57 -20 -32 4 -105 11 -161 16 -57 4 -106 11 -110
14 -8 9 7 60 56 184 22 56 36 102 32 102 -10 0 -54 -43 -109 -105 -24 -27 -42
-45 -40 -40 2 6 32 65 67 132 34 68 62 130 62 140 0 10 -7 37 -16 60 -16 42
-16 44 7 87 19 37 21 47 10 60 -19 23 -30 11 -103 -110 -34 -57 -65 -104 -69
-104 -13 0 4 44 33 84 15 21 28 43 28 49 0 22 66 145 81 150 8 2 34 44 57 92
33 67 40 90 30 96 -14 9 -79 -48 -101 -87 -7 -12 -27 -41 -44 -64 -18 -24 -33
-55 -33 -69 0 -42 -16 -58 -23 -23 -7 34 36 119 158 317 37 61 88 146 113 190
25 44 66 112 92 150 46 69 80 128 80 140 0 11 -63 -38 -154 -120 -135 -121
-171 -151 -161 -135 48 78 113 155 217 256 145 141 240 218 367 299 50 32 91
59 91 61 0 9 -58 -10 -155 -48 -106 -42 -242 -111 -314 -161 -129 -89 -302
-271 -383 -404 -23 -38 -70 -105 -105 -149 -34 -45 -63 -85 -63 -88 0 -22 50
5 147 78 74 56 113 80 117 71 2 -7 -7 -23 -20 -36 -57 -54 -115 -154 -139
-244 -14 -50 -25 -94 -25 -99 0 -4 19 9 42 30 24 21 43 33 46 26 2 -7 -11 -41
-30 -77 -28 -57 -31 -68 -20 -86 11 -18 8 -30 -22 -92 -20 -40 -36 -75 -36
-79 0 -19 70 37 79 63 5 16 13 29 16 29 11 0 -8 -55 -41 -122 -19 -37 -33 -80
-33 -95 1 -16 3 -21 6 -12 4 15 73 52 81 44 3 -2 -11 -37 -31 -77 -36 -74 -54
-128 -43 -128 3 0 23 19 44 42 l37 41 5 -109 c3 -60 4 -111 3 -114 0 -3 -48
-3 -105 0 l-103 5 -9 150 c-4 83 -10 152 -12 154 -4 4 -94 -28 -94 -34 0 -2
14 -44 30 -94 17 -49 33 -110 36 -135 l7 -46 -94 0 c-269 0 -546 -47 -594
-100 -16 -18 -17 -27 -7 -92 7 -40 14 -95 17 -123 3 -27 19 -149 35 -270 46
-350 77 -599 95 -755 28 -246 81 -635 91 -672 4 -13 -5 -18 -43 -23 -139 -20
-307 -78 -320 -112 -11 -29 17 -64 70 -89 147 -67 349 -94 883 -117 l52 -2
-112 -280 c-62 -154 -123 -300 -135 -323 -40 -79 -26 -133 45 -167 50 -23 238
-61 399 -80 615 -70 1328 -89 3054 -82 685 3 1363 10 1506 16 877 37 1291 87
1365 166 35 37 30 79 -23 215 -25 63 -89 239 -141 390 -53 151 -105 294 -116
318 -15 32 -17 44 -8 46 7 2 96 11 198 20 354 31 635 85 740 142 83 45 78 99
-13 138 -133 58 -497 120 -839 142 -60 3 -108 8 -108 9 0 1 7 22 15 45 21 59
19 119 -6 175 -11 25 -18 49 -16 52 10 9 45 -17 81 -58 29 -34 37 -39 42 -25
9 23 -5 88 -24 109 -21 23 -3 44 26 28 19 -10 62 -56 95 -101 l18 -25 -4 45
c-2 25 -16 74 -30 110 -15 35 -24 66 -22 68 10 10 65 -42 84 -80 20 -41 21
-41 29 -17 5 13 6 37 1 54 -20 67 2 88 40 39 18 -23 21 -24 21 -8 -1 49 -21
101 -50 127 -17 15 -25 27 -18 27 6 0 22 -10 35 -22 l24 -22 -16 37 c-21 51
-19 58 8 18 55 -84 56 -85 61 -70 12 40 15 83 5 101 -20 38 0 30 55 -22 47
-44 55 -49 60 -32 4 10 -3 45 -14 77 -21 60 -26 105 -12 105 4 0 24 -25 45
-56 42 -65 45 -58 16 41 -11 39 -23 93 -26 120 l-5 50 39 -37 c21 -21 42 -38
46 -38 13 0 7 54 -12 108 -10 28 -15 52 -11 52 4 0 23 -18 43 -39 l35 -39 6
30 c11 54 6 90 -15 124 -30 50 -18 66 19 25 18 -18 32 -39 32 -47 0 -8 5 -14
10 -14 6 0 10 27 10 61 0 52 -6 72 -37 129 -21 38 -34 72 -30 77 9 8 68 -50
99 -97 l16 -25 12 30 c18 46 -2 126 -48 193 -21 31 -85 99 -143 150 -57 51
-143 129 -191 173 -48 44 -92 78 -96 75 -5 -3 -18 4 -28 16 -21 23 -217 187
-279 233 l-40 30 33 -42 c19 -24 38 -45 43 -49 12 -7 94 -111 206 -259 91
-121 159 -228 206 -320 30 -61 84 -229 93 -287 l5 -43 -33 60 c-80 144 -528
713 -528 670 0 -15 68 -140 129 -237 73 -116 121 -212 178 -352 50 -126 53
-153 3 -38 -18 42 -50 100 -70 127 -58 76 -137 161 -145 153 -8 -7 31 -80 153
-286 83 -141 187 -364 199 -425 8 -42 0 -34 -88 98 -40 61 -103 151 -139 200
-37 50 -109 153 -161 230 -119 177 -179 258 -186 251 -3 -2 30 -74 73 -158
124 -243 142 -282 168 -360 33 -96 56 -233 55 -317 l-1 -66 -17 80 c-18 87
-66 180 -202 387 -51 79 -43 45 44 -193 37 -101 87 -316 87 -372 l-1 -32 -21
40 c-11 22 -43 78 -71 125 -28 47 -99 180 -159 295 -59 116 -108 204 -108 197
0 -8 24 -86 54 -175 70 -212 74 -224 106 -411 26 -147 26 -158 9 -135 -10 13
-19 30 -19 37 0 35 -192 390 -220 407 -14 9 -12 -34 6 -140 18 -109 31 -415
17 -439 -7 -13 -22 22 -66 146 -31 90 -66 199 -79 243 -25 87 -28 85 -44 -30
l-8 -50 -9 45 c-5 25 -12 493 -16 1050 l-6 1005 -23 51 c-27 60 -81 116 -137
141 -37 17 -91 18 -652 23 l-611 5 -26 24 c-14 14 -26 32 -26 41 0 55 222 256
367 332 131 69 247 99 413 105 103 4 151 1 203 -11 91 -21 100 -20 47 9 -112
60 -260 94 -420 96 -47 0 -96 4 -110 8 -47 15 125 24 347 19 133 -3 208 -1
198 5 -69 38 -304 77 -469 77 -127 0 -238 -18 -571 -95 -197 -45 -440 -91
-630 -120 -60 -9 -207 -32 -325 -52 -341 -56 -566 -49 -747 24 -71 29 -78 41
-12 21 30 -8 108 -13 239 -13 179 0 204 2 302 27 175 45 416 141 552 221 88
51 203 163 246 240 l32 57 76 1 c43 0 105 0 140 -1 70 -2 84 15 20 24 -66 9
-278 10 -428 2 -178 -9 -222 -15 -214 -28 5 -7 57 -8 167 -4 130 6 158 5 155
-6 -11 -32 -186 -148 -340 -225 -209 -105 -357 -162 -539 -212 -193 -52 -277
-64 -395 -59 -89 4 -108 8 -189 44 -86 38 -114 56 -280 174 -38 27 -88 55
-110 62 -22 6 -49 18 -61 25 -32 20 -150 43 -224 43 -150 0 -388 -61 -530
-137 -191 -101 -247 -149 -339 -287 -41 -62 -33 -32 12 43 65 110 222 246 372
324 88 46 235 97 321 112 103 18 406 29 493 18 l64 -8 19 -59 c35 -109 117
-196 230 -246 110 -48 294 -48 390 1 63 32 123 99 148 165 29 76 25 187 -9
252 -90 175 -347 259 -554 182 -75 -28 -177 -135 -197 -204 l-13 -48 -56 6
c-129 16 -262 25 -351 26 -103 0 -298 -28 -370 -54 -54 -20 -154 -79 -194
-115 -25 -23 -27 -23 -18 -5 12 22 75 67 172 122 50 28 135 54 260 80 45 10
45 10 10 12 -55 3 -84 0 -167 -20 -60 -14 -79 -15 -89 -6 -9 10 -5 12 20 13
17 0 84 9 149 21 141 26 240 27 425 6 75 -8 146 -16 157 -17 35 -3 22 27 -15
35 -99 21 -301 39 -523 45 -136 3 -246 7 -244 9 1 2 52 17 112 35 111 31 205
72 205 88 0 5 -44 0 -97 -10 -54 -10 -134 -24 -178 -30 -71 -11 -89 -19 -158
-67 -43 -29 -81 -52 -83 -49 -3 3 12 15 32 28 21 13 52 35 68 49 17 15 47 35
66 46 76 41 280 166 280 171 0 11 -151 -8 -202 -26 -29 -10 -90 -37 -135 -59
-46 -23 -83 -39 -83 -36 0 3 -20 -7 -43 -21 -24 -14 -52 -25 -62 -25 -10 0
-38 -12 -62 -26 -24 -14 -49 -23 -56 -21 -7 3 23 21 66 42 91 42 99 58 11 21
-33 -14 -52 -21 -44 -16 150 98 277 167 288 156 4 -5 -18 -20 -89 -59 -17 -10
-30 -20 -27 -22 2 -3 121 54 264 126 254 129 258 131 199 125 -76 -9 -258 -57
-366 -96 -55 -21 -79 -26 -69 -16 17 17 362 182 475 227 70 27 94 49 56 49
-60 0 -251 -34 -285 -50 -57 -28 -57 -16 0 20 48 30 292 130 318 130 17 0 48
34 39 43 -10 10 -261 6 -313 -5z m-340 -347 c0 -32 -104 -71 -188 -71 -33 0
-35 1 -20 16 9 9 56 27 105 39 104 28 103 28 103 16z m180 -121 c-8 -5 -19
-10 -25 -10 -5 0 -3 5 5 10 8 5 20 10 25 10 6 0 3 -5 -5 -10z m1198 -286 c31
-20 27 -48 -13 -88 -55 -55 -155 -74 -190 -36 -31 34 3 101 67 134 37 18 98
14 136 -10z m-1478 -53 c0 -9 -105 -111 -114 -111 -15 0 -2 22 40 69 42 46 74
65 74 42z m1800 -24 c0 -21 -49 -85 -70 -92 -49 -16 -53 24 -6 71 34 34 76 46
76 21z m-1465 -26 c-6 -4 -48 -16 -95 -25 -47 -10 -105 -24 -129 -32 -25 -8
-46 -12 -48 -10 -8 8 81 32 277 75 2 1 0 -3 -5 -8z m-515 -450 c0 -14 -150
-170 -174 -182 -21 -10 -21 -10 -1 8 11 10 53 55 94 101 74 83 81 89 81 73z
m3301 -475 c76 -16 135 -44 164 -76 11 -12 29 -27 40 -33 14 -9 195 -13 630
-17 601 -5 611 -5 650 -27 52 -27 83 -62 95 -102 5 -19 12 -581 16 -1335 7
-1226 6 -1302 -10 -1319 -16 -16 -144 -17 -2220 -17 -1212 0 -2217 -3 -2233
-6 -21 -4 -35 -1 -46 11 -16 15 -17 78 -17 728 0 467 4 725 11 750 8 28 7 44
-3 65 -10 22 -12 133 -8 557 6 592 3 569 77 636 59 54 95 58 445 56 l307 -3
40 47 c33 39 50 49 91 58 70 15 213 13 284 -4 71 -17 230 -91 222 -104 -8 -13
-62 2 -125 33 -29 15 -52 23 -50 18 2 -4 36 -37 74 -71 96 -87 155 -158 155
-187 0 -37 -21 -29 -80 32 -81 84 -200 157 -200 125 0 -6 31 -46 70 -91 145
-168 196 -273 160 -330 -11 -18 -9 -20 -55 67 -21 40 -55 93 -77 117 -44 51
-116 111 -124 103 -3 -2 15 -27 38 -55 24 -27 61 -87 83 -133 22 -45 60 -121
84 -168 24 -47 48 -99 52 -115 8 -29 -3 -66 -21 -66 -4 0 -39 52 -76 116 -42
72 -81 127 -105 146 -22 17 -39 38 -39 45 0 16 -40 73 -51 73 -5 0 -3 -13 2
-30 6 -16 14 -30 18 -30 4 0 8 -6 8 -12 0 -7 22 -65 48 -128 25 -63 53 -140
61 -170 16 -61 19 -123 5 -101 -7 11 -10 10 -18 -4 -8 -14 -15 -3 -37 56 -15
41 -45 108 -68 149 -42 80 -127 204 -134 197 -2 -2 22 -60 55 -128 73 -154 74
-159 53 -187 l-18 -23 -73 113 c-90 137 -198 249 -257 266 -63 18 -446 10
-427 -9 5 -5 88 -26 185 -48 96 -21 198 -50 224 -63 l49 -23 -290 -5 c-159 -3
-291 -7 -291 -8 -13 -19 -16 -194 -14 -1077 1 -723 4 -1043 12 -1052 8 -11
386 -13 1999 -13 l1989 0 11 27 c6 18 8 368 3 1062 -5 928 -8 1037 -22 1049
-12 9 -108 13 -386 14 -204 1 -387 3 -406 4 -19 1 -60 2 -90 3 -46 1 -52 3
-36 13 31 18 190 63 309 88 59 12 107 26 107 30 0 18 -490 30 -596 14 -43 -6
-58 -16 -119 -74 -76 -73 -136 -115 -289 -205 -87 -51 -183 -92 -193 -82 -2 2
31 32 72 67 62 52 135 142 135 167 0 3 -24 -16 -52 -43 -94 -88 -257 -204
-287 -204 -26 0 -2 34 109 152 125 132 186 205 179 212 -3 3 -27 -13 -54 -35
-73 -58 -182 -116 -282 -150 -48 -16 -91 -29 -96 -29 -21 0 34 46 173 145 131
92 230 181 230 207 0 11 -11 5 -69 -40 -96 -73 -339 -168 -364 -143 -16 16 26
49 128 102 44 23 104 58 134 77 56 35 171 138 171 153 0 5 -34 -10 -75 -32
-41 -22 -123 -54 -182 -71 -59 -16 -123 -39 -141 -50 -44 -27 -52 -15 -16 23
41 45 143 109 254 161 189 89 185 112 -18 104 -73 -3 -131 -2 -128 3 8 12 192
80 246 90 71 14 239 12 311 -3z m-3197 -53 c-37 -58 -157 -181 -170 -176 -26
10 52 105 141 172 50 37 51 37 29 4z m-164 -97 c0 -3 -15 -14 -32 -26 l-33
-22 28 26 c27 25 37 31 37 22z m-104 -214 c-14 -21 -41 -52 -58 -68 l-32 -29
19 30 c27 43 88 115 93 110 3 -3 -7 -22 -22 -43z m6122 -987 c11 -22 23 -56
27 -75 5 -26 -2 -17 -28 35 -19 39 -55 95 -81 126 -25 31 -46 60 -46 65 1 17
109 -111 128 -151z m-6415 21 c4 -10 -24 -15 -141 -20 -260 -12 -376 -30 -402
-61 -38 -46 166 -76 520 -77 380 0 650 34 650 83 0 15 -102 39 -196 45 -74 6
-94 10 -94 22 0 13 14 14 88 9 171 -12 242 -27 277 -58 39 -35 53 -36 91 -7
28 22 29 22 11 1 -68 -79 -401 -133 -813 -133 -303 0 -524 26 -621 72 -50 23
-57 43 -14 35 23 -5 31 -2 35 11 3 9 15 23 26 29 63 40 570 82 583 49z m267
-1 c10 -12 10 -19 2 -27 -9 -9 -12 -9 -12 0 0 9 -32 12 -115 12 -96 0 -115 3
-115 15 0 22 222 22 240 0z m-48 -608 c67 -30 121 -77 154 -133 l26 -44 144 0
144 0 0 -44 c0 -25 -4 -56 -10 -70 -9 -25 -11 -25 -127 -28 l-118 -3 -7 -63
c-4 -40 -17 -80 -32 -107 -15 -24 -26 -46 -26 -49 0 -3 60 -7 133 -8 l132 -3
0 -55 0 -55 -200 -6 c-137 -4 -219 -11 -260 -22 -80 -22 -135 -21 -223 3 -61
17 -102 20 -276 20 -113 0 -207 3 -210 8 -2 4 -6 30 -7 57 l-3 50 152 -3 c83
-2 155 -1 160 2 5 3 -3 30 -18 60 -16 30 -31 81 -35 115 l-7 60 -136 3 -137 3
-3 68 -3 67 155 0 155 0 30 43 c52 76 117 124 206 154 61 20 182 10 247 -20z
m5736 -992 c-8 -69 -46 -134 -108 -184 -30 -24 -55 -40 -57 -35 -7 20 48 138
92 199 56 79 80 86 73 20z m-208 9 c0 -19 -45 -94 -54 -91 -20 6 -17 43 4 70
19 24 50 37 50 21z m89 -21 c0 -5 -10 -26 -22 -48 -16 -29 -29 -41 -50 -43
-15 -2 -27 -1 -27 3 0 16 32 66 52 79 24 17 49 21 47 9z m-1076 -42 c9 -1 17
-7 17 -15 0 -8 -8 -17 -17 -20 -36 -11 -1717 -4 -1731 7 -10 8 -15 8 -20 0 -8
-13 -636 -12 -648 0 -11 11 -44 8 -44 -3 0 -5 -7 -10 -15 -10 -8 0 -15 6 -15
13 0 9 -2 9 -8 0 -5 -8 -115 -11 -406 -12 -363 0 -401 2 -412 17 -7 9 -11 19
-9 22 2 4 3231 5 3308 1z m852 -11 c18 -5 -135 -8 -387 -7 -230 0 -418 4 -418
7 0 4 2 9 4 11 8 8 771 -2 801 -11z m-4175 -6 c0 -14 -8 -16 -52 -10 -29 3
-226 7 -438 7 -212 1 -365 5 -340 9 25 4 222 8 438 8 357 2 392 1 392 -14z
m4222 -63 c47 -2 68 -41 152 -291 46 -135 97 -281 114 -325 17 -44 56 -150 88
-235 31 -85 65 -173 76 -194 19 -38 19 -39 1 -64 -46 -61 170 -57 -2878 -60
-1656 -1 -2835 1 -2917 7 -140 9 -200 26 -213 59 -3 9 17 61 49 126 31 61 71
149 90 196 18 47 71 175 116 285 45 110 91 222 101 248 41 103 107 235 122
243 11 6 4910 10 5099 5z m-5997 -83 c54 -9 184 -13 398 -13 174 1 311 -3 303
-7 -62 -35 -599 -36 -750 -1 -44 10 -81 24 -84 32 -3 10 3 12 24 7 16 -3 65
-11 109 -18z m160 -198 c66 -5 202 -7 303 -3 132 4 182 3 182 -5 0 -22 -57
-27 -300 -27 -245 1 -391 16 -437 45 -19 12 -17 12 252 -10z m6285 -903 c0
-29 -61 -84 -111 -99 -65 -19 -5732 -20 -5798 0 -54 17 -101 61 -101 96 l0 26
40 -21 c30 -16 71 -24 158 -30 68 -6 1282 -8 2907 -7 2585 3 2793 4 2827 20
20 9 43 26 50 37 14 22 28 11 28 -22z"/>
<path d="M991 3733 c-27 -10 -67 -38 -102 -72 -70 -69 -93 -133 -87 -245 9
-171 136 -291 308 -290 100 0 164 28 229 100 82 90 106 207 66 324 -24 73
-109 159 -179 183 -62 21 -175 21 -235 0z m224 -152 c58 -42 88 -103 81 -166
-11 -101 -92 -170 -197 -170 -46 0 -62 5 -93 29 -95 72 -111 191 -38 278 62
73 168 86 247 29z"/>
<path d="M1056 3489 c-54 -42 -21 -139 48 -139 17 0 39 11 58 30 35 36 33 71
-8 108 -31 28 -64 28 -98 1z"/>
<path d="M2005 2593 c-65 -9 -70 -19 -191 -379 -63 -186 -114 -348 -114 -360
0 -25 30 -54 56 -54 16 0 15 2 -6 13 -14 7 -26 20 -28 30 -2 9 17 67 41 129
52 134 91 244 123 353 13 44 31 99 40 123 l16 43 130 -2 c71 0 132 2 135 5 4
3 17 6 29 6 29 0 58 41 49 68 -3 11 -16 23 -28 26 -23 6 -201 5 -252 -1z"/>
<path d="M2370 2593 c-46 -17 -66 -68 -36 -92 20 -16 3485 -16 3521 1 39 18
33 63 -12 87 -16 8 -463 11 -1740 10 -945 0 -1725 -3 -1733 -6z"/>
<path d="M5953 2588 c-31 -15 -38 -44 -19 -73 l16 -25 224 0 224 0 11 -52 c20
-91 81 -338 112 -453 35 -132 36 -151 7 -167 -23 -12 -120 -13 -2488 -21
l-505 -1 645 -6 c355 -3 653 -9 663 -14 27 -13 47 -60 47 -111 0 -38 -5 -52
-29 -76 l-29 -29 -710 0 c-702 0 -710 0 -736 21 -23 18 -26 28 -26 80 0 33 4
69 10 79 12 23 61 40 116 40 26 0 44 5 44 11 0 8 -25 9 -87 4 -134 -11 -129
-7 -138 -121 -7 -94 -6 -97 17 -121 14 -13 42 -28 64 -33 50 -12 1414 -12
1474 -1 29 6 53 19 68 37 22 26 24 34 20 111 -3 62 -9 88 -23 103 l-18 20 784
0 c492 0 797 4 820 10 20 6 44 19 53 29 17 18 14 33 -49 303 -37 155 -73 310
-81 343 -17 69 -43 101 -93 115 -48 13 -360 12 -388 -2z"/>
<path d="M3025 2444 c-22 -8 -41 -14 -42 -14 -10 0 -1 -90 10 -98 9 -8 347
-11 389 -3 4 0 12 20 18 42 18 65 3 74 -126 74 -93 0 -107 -2 -120 -19 -12
-17 -14 -17 -14 -3 0 10 -11 19 -27 23 -16 3 -33 7 -38 9 -6 1 -29 -3 -50 -11z"/>
<path d="M1961 2431 c-25 -25 -38 -88 -22 -104 10 -10 236 -13 507 -7 16 0 46
78 39 100 -8 26 -45 30 -286 30 -204 0 -220 -1 -238 -19z"/>
<path d="M2514 2425 c-18 -28 -13 -64 12 -89 17 -18 107 -22 146 -7 20 7 24
17 26 55 2 57 -12 66 -102 66 -59 0 -67 -3 -82 -25z"/>
<path d="M2728 2439 c-26 -15 -25 -95 1 -109 22 -11 152 -12 191 -1 22 6 25
13 26 56 1 42 -2 51 -20 57 -34 10 -179 8 -198 -3z"/>
<path d="M3440 2430 c-23 -23 -24 -27 -9 -68 13 -38 47 -47 152 -39 79 5 97
19 97 74 0 44 -21 53 -129 53 -78 0 -94 -3 -111 -20z"/>
<path d="M3721 2439 c-21 -8 -23 -14 -18 -50 9 -67 13 -69 162 -66 148 2 165
9 165 63 0 55 -25 64 -165 63 -66 0 -131 -5 -144 -10z"/>
<path d="M4067 2432 c-21 -23 -22 -62 -3 -88 13 -17 27 -19 126 -19 99 0 113
2 126 20 16 21 9 85 -10 97 -6 4 -59 8 -117 8 -90 0 -108 -3 -122 -18z"/>
<path d="M4368 2438 c-28 -22 -29 -68 -2 -95 20 -20 33 -23 93 -23 96 0 118
10 123 55 7 63 -10 75 -111 75 -55 0 -93 -5 -103 -12z"/>
<path d="M4621 2433 c-20 -17 -23 -25 -17 -57 10 -51 37 -60 156 -52 51 4 96
8 98 11 2 2 5 21 8 43 5 56 -10 64 -124 70 -85 4 -100 2 -121 -15z"/>
<path d="M4912 2441 c-8 -4 -16 -26 -19 -48 -8 -58 17 -73 124 -73 94 0 113
11 113 65 0 51 -27 65 -125 65 -44 0 -86 -4 -93 -9z"/>
<path d="M5172 2443 c-36 -4 -40 -6 -28 -18 8 -8 17 -32 21 -53 l6 -39 61 -7
c76 -8 136 -8 166 0 20 6 23 12 20 53 -2 37 -8 48 -28 58 -24 12 -119 15 -218
6z"/>
<path d="M5454 2442 c-14 -8 -10 -90 5 -105 5 -5 49 -12 98 -14 79 -5 90 -3
106 15 27 29 19 83 -13 99 -27 14 -177 18 -196 5z"/>
<path d="M5707 2444 c-16 -16 -7 -94 13 -114 12 -12 18 -25 15 -30 -9 -15 6
-108 21 -127 13 -17 15 -17 29 2 16 21 16 23 -8 90 -11 30 -12 42 -4 47 7 4
54 8 105 8 l92 0 0 28 0 27 18 -21 c9 -12 26 -26 37 -32 24 -12 344 -11 363 1
19 13 14 71 -9 101 l-21 26 -186 -2 -187 -3 -6 -35 c-5 -30 -7 -31 -8 -8 0 15
-9 31 -18 37 -21 10 -236 15 -246 5z"/>
<path d="M4596 2291 c-14 -16 -17 -30 -13 -62 3 -23 10 -46 16 -52 18 -18 124
-10 138 10 17 22 17 88 1 101 -7 5 -38 13 -68 17 -48 6 -58 4 -74 -14z"/>
<path d="M4836 2301 c-48 -10 -57 -24 -54 -81 l3 -45 107 -3 c100 -2 108 -1
118 19 16 29 4 86 -21 99 -27 15 -106 20 -153 11z"/>
<path d="M5404 2295 c-13 -9 -16 -22 -12 -59 3 -26 10 -51 14 -56 5 -4 36 -10
69 -12 l60 -3 3 56 c2 37 -2 59 -10 66 -21 17 -105 22 -124 8z"/>
<path d="M1929 2285 c-27 -14 -34 -26 -49 -78 -15 -48 10 -53 220 -51 256 3
248 2 270 24 23 23 28 88 8 108 -19 19 -414 16 -449 -3z"/>
<path d="M2451 2291 c-18 -11 -32 -91 -20 -113 11 -20 89 -25 132 -9 34 13 55
99 30 119 -19 14 -121 16 -142 3z"/>
<path d="M2652 2283 c-19 -36 -25 -105 -11 -114 21 -13 103 -11 122 4 17 13
27 93 13 115 -4 7 -30 12 -61 12 -42 0 -56 -4 -63 -17z"/>
<path d="M2826 2284 c-3 -8 -6 -37 -6 -64 l0 -49 46 -7 c65 -9 195 2 206 18 4
7 7 36 6 63 l-3 50 -121 3 c-104 2 -123 0 -128 -14z"/>
<path d="M3136 2278 c-9 -12 -16 -41 -16 -64 0 -46 11 -54 82 -54 42 0 58 19
58 70 0 54 -15 70 -65 70 -34 0 -47 -5 -59 -22z"/>
<path d="M3300 2274 c-14 -36 -12 -66 6 -92 13 -20 24 -22 94 -22 107 0 110 2
110 64 0 29 -5 57 -12 64 -8 8 -45 12 -100 12 -86 0 -89 -1 -98 -26z"/>
<path d="M3557 2293 c-4 -3 -7 -30 -7 -60 0 -46 3 -55 23 -62 28 -11 262 -9
274 2 12 13 8 94 -7 112 -10 12 -38 15 -145 15 -72 0 -135 -3 -138 -7z"/>
<path d="M3906 2284 c-18 -17 -21 -66 -6 -94 12 -23 112 -36 195 -25 l55 6 0
45 c0 80 -6 84 -125 84 -81 0 -107 -3 -119 -16z"/>
<path d="M4196 2284 c-12 -31 -6 -91 11 -105 10 -9 41 -14 83 -14 79 0 100 13
100 62 0 66 -11 73 -104 73 -67 0 -85 -3 -90 -16z"/>
<path d="M4430 2281 c-16 -31 -12 -86 8 -104 10 -10 35 -17 55 -17 47 0 72 33
62 82 -11 48 -23 58 -71 58 -33 0 -46 -5 -54 -19z"/>
<path d="M5057 2293 c-10 -9 -8 -95 1 -111 7 -9 43 -12 148 -10 l139 3 3 42
c6 80 0 83 -152 83 -73 0 -136 -3 -139 -7z"/>
<path d="M5573 2285 c-6 -18 2 -103 11 -112 7 -7 126 -7 133 0 6 7 -17 100
-29 114 -16 19 -107 17 -115 -2z"/>
<path d="M5826 2293 c-22 -22 9 -117 41 -127 10 -3 136 -6 280 -7 303 -3 299
-4 278 69 -8 26 -22 52 -31 59 -12 9 -92 12 -289 12 -150 0 -275 -3 -279 -6z"/>
<path d="M3854 2141 c-17 -4 -36 -11 -42 -15 -15 -9 -16 -55 -2 -90 9 -25 12
-26 99 -26 106 0 116 7 105 75 -3 26 -12 48 -18 50 -29 9 -114 12 -142 6z"/>
<path d="M4573 2143 c-57 -4 -63 -6 -69 -29 -10 -40 4 -90 29 -100 12 -5 65
-8 118 -6 l97 3 6 33 c10 52 -7 83 -51 95 -21 6 -45 10 -53 9 -8 -1 -43 -3
-77 -5z"/>
<path d="M1888 2129 c-24 -9 -58 -61 -58 -88 0 -6 11 -18 24 -26 21 -14 62
-16 301 -13 263 3 277 4 291 23 9 12 14 37 12 65 l-3 45 -270 2 c-157 1 -281
-3 -297 -8z"/>
<path d="M2521 2122 c-15 -28 -22 -86 -13 -100 12 -18 146 -19 167 -2 21 18
21 106 -1 114 -9 3 -44 6 -79 6 -51 0 -66 -4 -74 -18z"/>
<path d="M2738 2129 c-14 -7 -18 -23 -18 -64 l0 -55 74 0 c88 0 98 9 94 77
l-3 48 -65 2 c-36 2 -73 -2 -82 -8z"/>
<path d="M2951 2126 c-18 -22 -25 -84 -12 -100 15 -18 144 -30 186 -18 23 7
31 16 38 46 6 25 6 46 -2 62 -10 23 -15 24 -105 24 -68 0 -97 -4 -105 -14z"/>
<path d="M3218 2129 c-14 -7 -18 -23 -18 -63 l0 -53 43 -6 c52 -7 129 2 139
17 12 18 9 91 -4 104 -15 15 -136 16 -160 1z"/>
<path d="M3451 2126 c-7 -8 -11 -37 -9 -68 3 -49 5 -53 29 -56 41 -5 59 21 59
84 l0 54 -34 0 c-18 0 -39 -6 -45 -14z"/>
<path d="M3591 2127 c-13 -6 -23 -15 -22 -19 0 -5 1 -28 1 -53 l0 -45 94 0
c89 0 94 1 100 23 10 39 7 75 -10 91 -19 20 -127 22 -163 3z"/>
<path d="M4070 2125 c-13 -15 -16 -87 -5 -105 3 -5 46 -10 94 -10 83 0 89 1
95 23 10 36 7 82 -6 95 -18 18 -162 16 -178 -3z"/>
<path d="M4293 2125 c-6 -17 1 -103 10 -111 7 -8 135 -6 147 1 14 9 12 99 -2
113 -19 19 -147 16 -155 -3z"/>
<path d="M4796 2124 c-18 -18 -21 -66 -6 -95 9 -16 22 -19 73 -19 71 0 87 10
87 55 0 54 -24 75 -85 75 -35 0 -59 -5 -69 -16z"/>
<path d="M4997 2133 c-10 -9 -8 -95 1 -111 5 -8 39 -13 96 -15 77 -2 89 0 102
17 20 28 17 59 -7 90 -19 24 -26 26 -103 26 -45 0 -86 -3 -89 -7z"/>
<path d="M5244 2115 c-7 -28 2 -73 18 -92 7 -9 43 -13 114 -13 94 0 104 2 114
20 6 12 10 35 8 53 -4 45 -34 57 -150 57 -96 0 -98 0 -104 -25z"/>
<path d="M5552 2128 c-15 -15 -16 -72 -2 -99 9 -16 22 -19 95 -19 46 0 90 3
99 6 28 11 15 94 -18 116 -18 13 -161 9 -174 -4z"/>
<path d="M5832 2130 c-30 -13 -35 -30 -22 -79 l11 -41 307 0 c226 0 311 3 320
12 20 20 13 58 -15 87 l-28 27 -275 1 c-151 1 -285 -2 -298 -7z"/>
<path d="M1830 1967 c-32 -16 -60 -89 -44 -115 10 -15 33 -17 177 -20 163 -2
166 -2 180 20 8 13 17 42 21 65 5 35 3 44 -13 53 -29 15 -290 13 -321 -3z"/>
<path d="M2221 1954 c-26 -33 -29 -109 -5 -118 9 -3 82 -6 163 -6 173 0 176 2
187 93 l7 57 -166 0 -166 0 -20 -26z"/>
<path d="M2644 1955 c-21 -21 -25 -33 -22 -73 l3 -47 152 -3 c149 -2 153 -2
167 20 8 13 16 46 18 73 l3 50 -148 3 c-146 3 -148 2 -173 -23z"/>
<path d="M3043 1972 c-17 -11 -33 -58 -33 -96 0 -39 14 -46 97 -46 66 0 86 23
81 97 l-3 48 -65 3 c-36 1 -70 -1 -77 -6z"/>
<path d="M3256 1964 c-21 -21 -22 -119 -1 -127 18 -7 1295 2 1307 9 11 7 10
91 -2 115 -10 18 -28 19 -650 19 -567 0 -640 -2 -654 -16z"/>
<path d="M4642 1968 c-17 -17 -15 -89 4 -116 15 -21 20 -22 198 -22 164 0 186
2 207 19 22 18 22 20 8 72 l-14 54 -195 3 c-144 2 -199 -1 -208 -10z"/>
<path d="M5217 1973 c-73 -4 -78 -5 -88 -30 -10 -28 -4 -79 13 -100 7 -9 48
-13 139 -13 118 0 131 2 150 21 16 16 20 28 15 53 -13 65 -57 78 -229 69z"/>
<path d="M5980 1935 l0 -45 -79 6 c-43 4 -108 3 -145 0 -60 -7 -66 -10 -66
-31 0 -15 7 -25 23 -29 39 -10 477 -7 498 4 29 16 25 71 -7 109 -26 31 -26 31
-125 31 l-99 0 0 -45z"/>
<path d="M6293 1952 c-68 -7 -29 -22 59 -22 53 0 88 4 83 9 -12 10 -97 18
-142 13z"/>
<path d="M5684 1938 c126 -6 213 -6 235 0 26 7 -32 10 -199 9 l-235 0 199 -9z"/>
<path d="M5502 1891 c-8 -5 -12 -17 -10 -27 4 -26 85 -33 94 -9 13 34 -47 60
-84 36z"/>
<path d="M6262 1868 c3 -22 6 -23 123 -23 117 0 120 1 123 23 3 22 2 22 -123
22 -125 0 -126 0 -123 -22z"/>
<path d="M2173 1793 c207 -2 547 -2 755 0 207 1 37 2 -378 2 -415 0 -585 -1
-377 -2z"/>
<path d="M6680 7262 c0 -4 16 -12 35 -18 34 -11 35 -11 19 7 -17 19 -54 26
-54 11z"/>
<path d="M7498 7033 c7 -3 16 -2 19 1 4 3 -2 6 -13 5 -11 0 -14 -3 -6 -6z"/>
<path d="M4550 6845 c-58 -7 -139 -20 -180 -29 -41 -9 -85 -16 -98 -16 -13 0
-37 -8 -55 -17 -29 -16 -30 -18 -11 -21 12 -2 48 4 80 12 33 8 142 27 244 41
264 38 281 62 20 30z"/>
<path d="M6440 6146 c0 -2 35 -16 78 -31 83 -30 334 -149 394 -187 21 -13 112
-77 203 -143 91 -66 175 -126 186 -134 17 -12 -75 140 -136 227 -26 36 -30 17
-5 -25 25 -43 30 -48 -61 60 -32 38 -66 60 -158 107 -128 64 -179 80 -353 110
-111 19 -148 24 -148 16z"/>
<path d="M833 5669 c-31 -13 -43 -24 -43 -39 0 -16 -6 -20 -32 -20 -58 0 -64
-14 -23 -47 33 -28 36 -34 33 -74 l-3 -43 -58 -17 c-63 -19 -127 -57 -127 -76
0 -7 17 -5 50 8 50 19 130 26 130 12 0 -5 -7 -48 -16 -97 -8 -48 -13 -91 -10
-94 4 -3 30 -7 60 -10 l53 -4 -5 116 -5 115 29 12 c16 6 50 12 76 13 27 0 48
2 48 4 0 12 -31 72 -37 72 -4 0 -32 -9 -61 -20 l-53 -20 7 52 c4 29 11 64 17
78 16 41 25 90 18 94 -3 2 -25 -5 -48 -15z"/>
<path d="M6840 5671 c0 -23 195 -190 332 -283 179 -123 280 -199 377 -287 39
-34 71 -58 71 -52 0 6 -24 38 -52 70 -29 32 -82 91 -118 131 -85 97 -345 288
-541 399 -59 33 -69 36 -69 22z"/>
<path d="M7920 4808 c0 -4 9 -22 20 -40 12 -20 20 -26 20 -17 0 16 -39 72 -40
57z"/>
</g>
</svg>
